<svg xmlns="http://www.w3.org/2000/svg">

    <symbol id="logo-icon" viewBox="0 0 112 43" fill="none" xmlns="http://www.w3.org/2000/svg">
        <rect x="3.67383" y="4.97852" width="42.2674" height="37.3367" rx="6.96951" fill="#6C5FBC"/>
        <rect x="1.0075" y="1.0075" width="40.2524" height="35.3217" rx="5.96201" fill="#DBD9EE" stroke="#6C5FBC" stroke-width="2.01499"/>
        <path d="M32.624 12.0518L9.72243 11.9505" stroke="#6C5FBC" stroke-width="2.08432" stroke-linecap="round" stroke-linejoin="round"/>
        <path d="M32.6096 16.6368L27.5162 16.6142C25.4095 16.6049 23.7056 14.5428 23.7133 12.0119C23.7211 9.48095 25.4376 7.43398 27.5443 7.4433L32.6377 7.46582" stroke="#6C5FBC" stroke-width="2.08432" stroke-linecap="round" stroke-linejoin="round"/>
        <path d="M17.3611 26.7221L10.7067 26.648C10.1614 26.6456 9.70458 26.1076 9.6942 25.4525L9.64992 23.7254C9.63962 23.0405 10.0999 22.462 10.6699 22.4645L17.25 22.5383L17.3611 26.7221Z" stroke="#6C5FBC" stroke-width="2.08432" stroke-linecap="round" stroke-linejoin="round"/>
        <path d="M27.8134 29.2108L18.4076 29.0948C17.8624 29.0924 17.4055 28.5544 17.3951 27.8993L17.2752 22.5242L32.555 22.7108L32.5653 23.3957C32.6421 26.6417 30.5025 29.2525 27.8134 29.2108Z" stroke="#6C5FBC" stroke-width="2.08432" stroke-linecap="round" stroke-linejoin="round"/>
        <path d="M69.3081 21.6458C69.3081 22.0693 69.2798 22.4505 69.2234 22.7893H60.6472C60.7178 23.6363 61.0142 24.2999 61.5366 24.7798C62.0589 25.2598 62.7012 25.4998 63.4635 25.4998C64.5647 25.4998 65.3482 25.0269 65.8141 24.081H69.0116C68.6728 25.2104 68.0234 26.1421 67.0634 26.8762C66.1035 27.5962 64.9247 27.9562 63.5271 27.9562C62.3977 27.9562 61.3813 27.7092 60.4778 27.2151C59.5884 26.7068 58.8896 25.9939 58.3814 25.0763C57.8873 24.1587 57.6402 23.0999 57.6402 21.8999C57.6402 20.6859 57.8873 19.62 58.3814 18.7024C58.8755 17.7848 59.5672 17.0789 60.4566 16.5848C61.346 16.0907 62.3695 15.8437 63.5271 15.8437C64.6423 15.8437 65.6376 16.0836 66.5129 16.5636C67.4022 17.0436 68.0869 17.7283 68.5669 18.6177C69.061 19.4929 69.3081 20.5023 69.3081 21.6458ZM66.2376 20.7988C66.2235 20.0365 65.9482 19.4294 65.4117 18.9777C64.8753 18.5118 64.2188 18.2789 63.4424 18.2789C62.7083 18.2789 62.0871 18.5047 61.5789 18.9565C61.0848 19.3941 60.7813 20.0082 60.6683 20.7988H66.2376ZM70.7096 21.8576C70.7096 20.6717 70.9426 19.62 71.4084 18.7024C71.8884 17.7848 72.5308 17.0789 73.3354 16.5848C74.1542 16.0907 75.0648 15.8437 76.0671 15.8437C76.9424 15.8437 77.7047 16.0201 78.3541 16.373C79.0176 16.726 79.547 17.1707 79.9423 17.7071V16.0342H82.9281V27.7656H79.9423V26.0504C79.5611 26.601 79.0317 27.0598 78.3541 27.4268C77.6906 27.7797 76.9212 27.9562 76.0459 27.9562C75.0577 27.9562 74.1542 27.7021 73.3354 27.1939C72.5308 26.6857 71.8884 25.9727 71.4084 25.0551C70.9426 24.1234 70.7096 23.0575 70.7096 21.8576ZM79.9423 21.8999C79.9423 21.18 79.8011 20.5659 79.5188 20.0576C79.2364 19.5353 78.8553 19.14 78.3753 18.8718C77.8953 18.5894 77.38 18.4483 76.8294 18.4483C76.2789 18.4483 75.7707 18.5824 75.3048 18.8506C74.8389 19.1188 74.4578 19.5141 74.1613 20.0365C73.8789 20.5447 73.7378 21.1517 73.7378 21.8576C73.7378 22.5634 73.8789 23.1846 74.1613 23.721C74.4578 24.2434 74.8389 24.6457 75.3048 24.9281C75.7848 25.2104 76.293 25.3516 76.8294 25.3516C77.38 25.3516 77.8953 25.2175 78.3753 24.9492C78.8553 24.6669 79.2364 24.2716 79.5188 23.7634C79.8011 23.2411 79.9423 22.6199 79.9423 21.8999ZM89.2752 18.4695V24.1446C89.2752 24.5398 89.3669 24.8292 89.5505 25.0128C89.7481 25.1822 90.0728 25.2669 90.5246 25.2669H91.901V27.7656H90.0375C87.5388 27.7656 86.2894 26.5515 86.2894 24.1234V18.4695H84.8918V16.0342H86.2894V13.1332H89.2752V16.0342H91.901V18.4695H89.2752ZM96.9979 12.0955V27.7656H94.0333V12.0955H96.9979ZM111.15 16.0342L103.887 33.3137H100.732L103.273 27.4692L98.5717 16.0342H101.896L104.924 24.2293L107.995 16.0342H111.15Z" fill="#6C5FBC"/>
    </symbol>
    <symbol id="trustpilot-icon" viewBox="0 0 123 31" fill="none" xmlns="http://www.w3.org/2000/svg">
        <path d="M32.3291 10.7012H44.7726V13.0177H39.8731V26.0762H37.1876V13.0177H32.3086L32.3291 10.7012ZM44.2396 14.9447H46.5356V17.0972H46.5766C46.6586 16.7897 46.8021 16.5027 47.0071 16.2157C47.2121 15.9287 47.4581 15.6622 47.7656 15.4367C48.0526 15.1907 48.3806 15.0062 48.7496 14.8627C49.0981 14.7192 49.4671 14.6372 49.8361 14.6372C50.1231 14.6372 50.3281 14.6577 50.4306 14.6577C50.5331 14.6782 50.6561 14.6987 50.7586 14.6987V17.0562C50.5946 17.0152 50.4101 16.9947 50.2256 16.9742C50.0411 16.9537 49.8771 16.9332 49.6926 16.9332C49.2826 16.9332 48.8931 17.0152 48.5241 17.1792C48.1551 17.3432 47.8476 17.5892 47.5606 17.8967C47.2941 18.2247 47.0686 18.6142 46.9046 19.0857C46.7406 19.5572 46.6586 20.1107 46.6586 20.7257V26.0147H44.1986L44.2396 14.9447ZM62.0336 26.0762H59.6146V24.5182H59.5736C59.2661 25.0922 58.8151 25.5227 58.2206 25.8712C57.6261 26.2197 57.0111 26.3837 56.3961 26.3837C54.9406 26.3837 53.8746 26.0352 53.2186 25.2972C52.5626 24.5797 52.2346 23.4727 52.2346 22.0172V14.9447H54.6946V21.7712C54.6946 22.7552 54.8791 23.4522 55.2686 23.8417C55.6376 24.2517 56.1706 24.4567 56.8471 24.4567C57.3596 24.4567 57.7901 24.3747 58.1386 24.2107C58.4871 24.0467 58.7741 23.8417 58.9791 23.5752C59.2046 23.3087 59.3481 22.9807 59.4506 22.6117C59.5531 22.2427 59.5941 21.8327 59.5941 21.4022V14.9447H62.0541V26.0762H62.0336ZM66.2156 22.5092C66.2976 23.2267 66.5641 23.7187 67.0356 24.0262C67.5071 24.3132 68.0811 24.4567 68.7371 24.4567C68.9626 24.4567 69.2291 24.4362 69.5161 24.3952C69.8031 24.3542 70.0901 24.2927 70.3361 24.1902C70.6026 24.0877 70.8076 23.9442 70.9716 23.7392C71.1356 23.5342 71.2176 23.2882 71.1971 22.9807C71.1766 22.6732 71.0741 22.4067 70.8486 22.2017C70.6231 21.9967 70.3566 21.8532 70.0286 21.7097C69.7006 21.5867 69.3111 21.4842 68.8806 21.4022C68.4501 21.3202 68.0196 21.2177 67.5686 21.1152C67.1176 21.0127 66.6666 20.8897 66.2361 20.7462C65.8056 20.6027 65.4366 20.4182 65.0881 20.1517C64.7601 19.9057 64.4731 19.5982 64.2886 19.2087C64.0836 18.8192 63.9811 18.3682 63.9811 17.7942C63.9811 17.1792 64.1246 16.6872 64.4321 16.2772C64.7191 15.8672 65.1086 15.5392 65.5596 15.2932C66.0106 15.0472 66.5231 14.8627 67.0766 14.7602C67.6301 14.6577 68.1631 14.6167 68.6551 14.6167C69.2291 14.6167 69.7826 14.6782 70.2951 14.8012C70.8076 14.9242 71.2996 15.1087 71.7096 15.3957C72.1401 15.6622 72.4886 16.0312 72.7551 16.4617C73.0421 16.8922 73.2061 17.4252 73.2881 18.0402H70.7256C70.6026 17.4457 70.3361 17.0562 69.9261 16.8512C69.4956 16.6462 69.0241 16.5437 68.4706 16.5437C68.3066 16.5437 68.0811 16.5642 67.8556 16.5847C67.6096 16.6257 67.4046 16.6667 67.1791 16.7487C66.9741 16.8307 66.7896 16.9537 66.6461 17.0972C66.5026 17.2407 66.4206 17.4457 66.4206 17.6917C66.4206 17.9992 66.5231 18.2247 66.7281 18.4092C66.9331 18.5937 67.1996 18.7372 67.5481 18.8807C67.8761 19.0037 68.2656 19.1062 68.6961 19.1882C69.1266 19.2702 69.5776 19.3727 70.0286 19.4752C70.4796 19.5777 70.9101 19.7007 71.3406 19.8442C71.7711 19.9877 72.1606 20.1722 72.4886 20.4387C72.8166 20.6847 73.1036 20.9922 73.3086 21.3612C73.5136 21.7302 73.6161 22.2017 73.6161 22.7347C73.6161 23.3907 73.4726 23.9442 73.1651 24.4157C72.8576 24.8667 72.4681 25.2562 71.9966 25.5432C71.5251 25.8302 70.9716 26.0352 70.3976 26.1787C69.8031 26.3017 69.2291 26.3837 68.6551 26.3837C67.9581 26.3837 67.3021 26.3017 66.7076 26.1377C66.1131 25.9737 65.5801 25.7277 65.1496 25.4202C64.7191 25.0922 64.3706 24.7027 64.1246 24.2107C63.8786 23.7392 63.7351 23.1652 63.7146 22.4887H66.1951V22.5092H66.2156ZM74.3131 14.9447H76.1786V11.5827H78.6386V14.9242H80.8526V16.7487H78.6386V22.6937C78.6386 22.9602 78.6591 23.1652 78.6796 23.3702C78.7001 23.5547 78.7616 23.7187 78.8231 23.8417C78.9051 23.9647 79.0281 24.0672 79.1716 24.1287C79.3356 24.1902 79.5406 24.2312 79.8276 24.2312C79.9916 24.2312 80.1761 24.2312 80.3401 24.2107C80.5041 24.1902 80.6886 24.1697 80.8526 24.1287V26.0352C80.5861 26.0762 80.3196 26.0967 80.0531 26.1172C79.7866 26.1582 79.5406 26.1582 79.2536 26.1582C78.5976 26.1582 78.0851 26.0967 77.6956 25.9737C77.3061 25.8507 76.9986 25.6662 76.7731 25.4407C76.5476 25.1947 76.4041 24.9077 76.3221 24.5592C76.2401 24.2107 76.1991 23.7802 76.1786 23.3292V16.7692H74.3131V14.9037V14.9447ZM82.5746 14.9447H84.8911V16.4617H84.9321C85.2806 15.8057 85.7521 15.3547 86.3671 15.0677C86.9821 14.7807 87.6381 14.6372 88.3761 14.6372C89.2576 14.6372 90.0161 14.7807 90.6721 15.1087C91.3281 15.4162 91.8611 15.8262 92.2916 16.3797C92.7221 16.9127 93.0501 17.5482 93.2551 18.2657C93.4601 18.9832 93.5831 19.7622 93.5831 20.5617C93.5831 21.3202 93.4806 22.0377 93.2961 22.7347C93.0911 23.4317 92.8041 24.0672 92.4146 24.6002C92.0251 25.1332 91.5331 25.5637 90.9181 25.8917C90.3031 26.2197 89.6061 26.3837 88.7861 26.3837C88.4376 26.3837 88.0686 26.3427 87.7201 26.2812C87.3716 26.2197 87.0231 26.1172 86.6951 25.9737C86.3671 25.8302 86.0596 25.6457 85.7931 25.4202C85.5061 25.1947 85.2806 24.9282 85.0961 24.6412H85.0551V30.1967H82.5951V14.9447H82.5746ZM91.1641 20.5207C91.1641 20.0287 91.1026 19.5367 90.9591 19.0652C90.8361 18.5937 90.6311 18.1837 90.3646 17.8147C90.0981 17.4457 89.7701 17.1587 89.4011 16.9332C89.0116 16.7077 88.5606 16.6052 88.0686 16.6052C87.0436 16.6052 86.2646 16.9537 85.7316 17.6712C85.2191 18.3887 84.9526 19.3522 84.9526 20.5412C84.9526 21.1152 85.0141 21.6277 85.1576 22.0992C85.3011 22.5707 85.4856 22.9807 85.7726 23.3292C86.0391 23.6777 86.3671 23.9442 86.7566 24.1492C87.1461 24.3542 87.5766 24.4567 88.0891 24.4567C88.6631 24.4567 89.1141 24.3337 89.5036 24.1082C89.8931 23.8827 90.2006 23.5752 90.4671 23.2267C90.7131 22.8577 90.8976 22.4477 91.0001 21.9762C91.1026 21.4842 91.1641 21.0127 91.1641 20.5207ZM95.4896 10.7012H97.9496V13.0177H95.4896V10.7012ZM95.4896 14.9447H97.9496V26.0762H95.4896V14.9447ZM100.143 10.7012H102.603V26.0762H100.143V10.7012ZM110.106 26.3837C109.225 26.3837 108.425 26.2402 107.728 25.9327C107.031 25.6252 106.457 25.2357 105.965 24.7232C105.494 24.2107 105.125 23.5752 104.879 22.8577C104.633 22.1402 104.489 21.3407 104.489 20.5002C104.489 19.6597 104.612 18.8807 104.879 18.1632C105.125 17.4457 105.494 16.8307 105.965 16.2977C106.437 15.7852 107.031 15.3752 107.728 15.0882C108.425 14.8012 109.225 14.6372 110.106 14.6372C110.988 14.6372 111.787 14.7807 112.484 15.0882C113.181 15.3752 113.755 15.7852 114.247 16.2977C114.719 16.8102 115.088 17.4457 115.334 18.1632C115.58 18.8807 115.723 19.6597 115.723 20.5002C115.723 21.3612 115.6 22.1402 115.334 22.8577C115.067 23.5752 114.719 24.1902 114.247 24.7232C113.776 25.2357 113.181 25.6457 112.484 25.9327C111.787 26.2197 111.008 26.3837 110.106 26.3837ZM110.106 24.4362C110.639 24.4362 111.131 24.3132 111.521 24.0877C111.931 23.8622 112.238 23.5547 112.505 23.1857C112.771 22.8167 112.956 22.3862 113.079 21.9352C113.202 21.4637 113.263 20.9922 113.263 20.5002C113.263 20.0287 113.202 19.5572 113.079 19.0857C112.956 18.6142 112.771 18.2042 112.505 17.8352C112.238 17.4662 111.91 17.1792 111.521 16.9537C111.111 16.7282 110.639 16.6052 110.106 16.6052C109.573 16.6052 109.081 16.7282 108.692 16.9537C108.282 17.1792 107.974 17.4867 107.708 17.8352C107.441 18.2042 107.257 18.6142 107.134 19.0857C107.011 19.5572 106.949 20.0287 106.949 20.5002C106.949 20.9922 107.011 21.4637 107.134 21.9352C107.257 22.4067 107.441 22.8167 107.708 23.1857C107.974 23.5547 108.302 23.8622 108.692 24.0877C109.102 24.3337 109.573 24.4362 110.106 24.4362ZM116.461 14.9447H118.327V11.5827H120.787V14.9242H123.001V16.7487H120.787V22.6937C120.787 22.9602 120.807 23.1652 120.828 23.3702C120.848 23.5547 120.91 23.7187 120.971 23.8417C121.053 23.9647 121.176 24.0672 121.32 24.1287C121.484 24.1902 121.689 24.2312 121.976 24.2312C122.14 24.2312 122.324 24.2312 122.488 24.2107C122.652 24.1902 122.837 24.1697 123.001 24.1287V26.0352C122.734 26.0762 122.468 26.0967 122.201 26.1172C121.935 26.1582 121.689 26.1582 121.402 26.1582C120.746 26.1582 120.233 26.0967 119.844 25.9737C119.454 25.8507 119.147 25.6662 118.921 25.4407C118.696 25.1947 118.552 24.9077 118.47 24.5592C118.388 24.2107 118.347 23.7802 118.327 23.3292V16.7692H116.461V14.9037V14.9447Z" fill="black"/>
        <path d="M29.4585 10.701H18.204L14.7395 0L11.2545 10.701L0 10.6805L9.10199 17.302L5.617 28.003L14.719 21.3815L23.821 28.003L20.3565 17.302L29.4585 10.701Z" fill="#00B67A"/>
        <path d="M21.1362 19.7208L20.3572 17.3018L14.7402 21.3813L21.1362 19.7208Z" fill="#005128"/>
    </symbol>
    <symbol id="star-icon" viewBox="0 0 16 16" fill="none" xmlns="http://www.w3.org/2000/svg">
        <path d="M6.95816 0.741543C7.27942 -0.247181 8.6782 -0.247181 8.99945 0.741543L10.1473 4.2742C10.291 4.71637 10.703 5.01575 11.1679 5.01575H14.8824C15.922 5.01575 16.3542 6.34607 15.5132 6.95713L12.5081 9.14044C12.132 9.41371 11.9746 9.89811 12.1183 10.3403L13.2661 13.8729C13.5874 14.8617 12.4557 15.6838 11.6147 15.0728L8.6096 12.8895C8.23347 12.6162 7.72415 12.6162 7.34801 12.8895L4.34295 15.0728C3.5019 15.6838 2.37026 14.8617 2.69151 13.8729L3.83935 10.3403C3.98302 9.89811 3.82563 9.41371 3.44949 9.14044L0.444434 6.95713C-0.396625 6.34607 0.0356224 5.01575 1.07523 5.01575H4.78969C5.25461 5.01575 5.66666 4.71637 5.81033 4.2742L6.95816 0.741543Z" fill="#F59E0B"/>
    </symbol>
    <symbol id="arrow-icon" viewBox="0 0 101 98" fill="none" xmlns="http://www.w3.org/2000/svg">
        <path d="M71.6674 10.7111C80.803 24.3855 86.0196 40.0142 80.7461 55.9952C75.9861 70.42 63.0132 78.9641 48.1158 68.2622C41.0635 63.1962 36.4872 52.9723 41.0691 45.3764C46.1738 36.9138 57.5029 44.4112 60.5762 50.1704C67.7546 63.6215 63.1038 81.7597 47.3119 89.9534C28.6107 99.6567 20.562 81.1081 20.7098 81.1037" stroke="#665AB5" stroke-width="2.65" stroke-miterlimit="1.5" stroke-linecap="round" stroke-linejoin="round"/>
        <path d="M91.0256 14.5963C89.1011 14.9712 87.2152 14.5933 85.3117 14.3026C79.0611 13.3488 72.67 10.5339 68.7869 5.89197C71.0236 11.8454 71.6846 20.2492 66.9237 25.2906" stroke="#665AB5" stroke-width="2.65" stroke-miterlimit="1.5" stroke-linecap="round" stroke-linejoin="round"/>
    </symbol>
    <symbol id="lines-top-icon" viewBox="0 0 42 28" fill="none" xmlns="http://www.w3.org/2000/svg">
        <path d="M3.03562 12.8839C6.63998 9.20371 11.0587 8.59002 15.5406 8.17742C21.1348 7.66242 26.8271 7.46063 31.1569 1.99998" stroke="#685BB8" stroke-width="2.65" stroke-miterlimit="1.5" stroke-linecap="round" stroke-linejoin="round"/>
        <path d="M1.63661 23.2285C4.92103 18.5553 9.69807 15.7937 15.3404 15.1712C18.2926 14.8456 21.2864 15.1697 24.22 14.6123C30.8291 13.356 36.9687 9.34402 39.8474 3.13949" stroke="#685BB8" stroke-width="2.65" stroke-miterlimit="1.5" stroke-linecap="round" stroke-linejoin="round"/>
        <path d="M30.5218 19.2191C28.3334 20.6222 25.9587 21.6906 23.3509 21.9971C18.1575 22.6072 12.7177 21.7974 8.77443 25.9997" stroke="#685BB8" stroke-width="2.65" stroke-miterlimit="1.5" stroke-linecap="round" stroke-linejoin="round"/>
    </symbol>
    <symbol id="curve-icon" viewBox="0 0 209 100" fill="none" xmlns="http://www.w3.org/2000/svg">
        <path d="M1.07422 83.6715C12.1442 83.6715 13.2155 98.0846 24.9997 98.0846C36.7839 98.0846 33.9271 57.1211 44.9972 57.1211C56.0672 57.1211 49.9965 22.6056 65.3517 22.6056C80.7069 22.6056 73.5649 57.1211 87.4917 57.1211C101.418 57.1211 99.2759 16.8297 108.203 16.8297C117.131 16.8297 114.631 40.8116 125.344 40.8116C136.057 40.8116 131.058 1.25586 142.485 1.25586C153.912 1.25586 152.84 18.5225 163.196 18.5225C173.552 18.5225 174.623 38.5359 188.907 38.5359C203.191 38.5359 194.264 60.8428 207.833 60.8428" stroke="#6C5FBC" stroke-width="1.98779" stroke-linecap="round" stroke-linejoin="round"/>
    </symbol>
    <symbol id="point-icon" viewBox="0 0 10 10" fill="none" xmlns="http://www.w3.org/2000/svg">
        <path d="M5.17188 1.24414C6.992 1.24414 8.58301 2.83462 8.58301 4.94336C8.58291 7.052 6.99195 8.64258 5.17188 8.64258C3.352 8.64231 1.76182 7.05182 1.76172 4.94336C1.76172 2.8348 3.35194 1.24441 5.17188 1.24414Z" fill="#C5BFED" stroke="#6C5FBC" stroke-width="2.22012"/>
    </symbol>
    <symbol id="lines-bottom-icon" viewBox="0 0 39 37" fill="none" xmlns="http://www.w3.org/2000/svg">
        <path d="M27.3376 31.1198C30.2316 24.6503 32.3782 17.9383 34.9719 11.3638" stroke="#685BB8" stroke-width="2.65" stroke-miterlimit="1.5" stroke-linecap="round" stroke-linejoin="round"/>
        <path d="M7.92894 35.0005C15.8316 26.5431 22.9341 17.0933 29.461 7.55682" stroke="#685BB8" stroke-width="2.65" stroke-miterlimit="1.5" stroke-linecap="round" stroke-linejoin="round"/>
        <path d="M1.63457 15.8358C9.15324 13.2755 18.5471 6.43167 25.4724 1.99974" stroke="#685BB8" stroke-width="2.65" stroke-miterlimit="1.5" stroke-linecap="round" stroke-linejoin="round"/>
    </symbol>
    <symbol id="decor1-icon" viewBox="0 0 384 221" fill="none" xmlns="http://www.w3.org/2000/svg">
        <path opacity="0.2" d="M369.68 577.878C375.051 546.413 382.885 516.817 380.878 482.89C379.444 458.658 373.443 434.809 361.905 412.054C340.393 369.626 312.272 329.18 278.84 296.952C244.679 264.021 211.142 228.189 172.566 202.9C136.7 179.387 98.446 159.962 63.4785 134.41C4.88972 91.5978 -36.5779 23.2802 -71.7742 -42.2882C-90.3944 -76.9764 -108.862 -111.901 -126.689 -147.001C-137.875 -169.027 -147.273 -192.647 -161.028 -213.115" stroke="#A596FF" stroke-width="4.01667" stroke-linecap="round"/>
    </symbol>
    <symbol id="decor2-icon" viewBox="0 0 428 221" fill="none" xmlns="http://www.w3.org/2000/svg">
        <path opacity="0.2" d="M413.34 566.6C419.134 532.606 427.589 500.633 425.415 463.977C423.861 437.797 417.374 412.03 404.907 387.442C381.662 341.6 351.28 297.896 315.163 263.07C278.258 227.484 242.027 188.764 200.355 161.433C161.61 136.023 120.288 115.028 82.5135 87.4146C19.2219 41.1481 -25.5823 -32.6707 -63.6122 -103.518C-83.7315 -140.999 -103.686 -178.735 -122.948 -216.66C-135.036 -240.46 -145.191 -265.98 -160.052 -288.097" stroke="#A596FF" stroke-width="4.01667" stroke-linecap="round"/>
    </symbol>
    <symbol id="decor3-icon" viewBox="0 0 128 221" fill="none" xmlns="http://www.w3.org/2000/svg">
        <path opacity="0.2" d="M250.547 -80.8447C227.068 -78.6528 201.569 -78.3091 178.691 -73.183C156.305 -68.1671 132.729 -59.0673 113.033 -49.4564C76.737 -31.7454 58.1474 -6.95103 41.2821 22.6297C13.4496 71.4467 3.3729 122.078 2.93791 175.123C2.64995 210.239 3.99988 244.997 7.66528 279.998C8.78437 290.684 8.22504 302.9 16.0695 312.128" stroke="#A596FF" stroke-width="4.44874" stroke-linecap="round"/>
    </symbol>
    <symbol id="decor4-icon" viewBox="0 0 88 221" fill="none" xmlns="http://www.w3.org/2000/svg">
        <path opacity="0.2" d="M258.001 -55.6357C233.819 -53.3776 207.556 -53.0235 183.993 -47.7427C160.937 -42.5754 136.655 -33.2008 116.37 -23.2998C78.9867 -5.05417 59.8405 20.4887 42.4704 50.9625C13.8045 101.253 3.42611 153.413 2.9781 208.059C2.68151 244.235 4.07186 280.042 7.84701 316.1C8.9996 327.109 8.42353 339.694 16.5028 349.2" stroke="#A596FF" stroke-width="4.44874" stroke-linecap="round"/>
    </symbol>
    <symbol id="arrow-right-icon" viewBox="0 0 28 28" fill="none" xmlns="http://www.w3.org/2000/svg">
        <path d="M6.55469 13.5469H22.3588" stroke="currentColor" stroke-width="2.25773" stroke-linecap="round" stroke-linejoin="round"/>
        <path d="M14.4561 5.64453L22.3581 13.5466L14.4561 21.4487" stroke="currentColor" stroke-width="2.25773" stroke-linecap="round" stroke-linejoin="round"/>
    </symbol>
    <symbol id="arrow-quality-icon" viewBox="0 0 169 61" fill="none" xmlns="http://www.w3.org/2000/svg">
        <path d="M168.51 6.14524C168.736 5.44942 168.356 4.70168 167.66 4.4751C166.964 4.24854 166.216 4.62893 165.99 5.32475L168.51 6.14524ZM134.211 38.1393L134.417 39.4481L134.211 38.1393ZM94.9327 16.2392L96.2576 16.2287L94.9327 16.2392ZM106.699 2.00495L106.79 3.32679L106.699 2.00495ZM119.187 12.3894L117.941 12.8395L119.187 12.3894ZM85.8664 47.5723L86.0118 48.8893L85.8664 47.5723ZM50.0898 25.0035L51.4127 24.9278L50.0898 25.0035ZM58.6008 14.038L58.9272 15.3222L58.6008 14.038ZM32.8261 59.2674L32.9313 57.9466L32.8261 59.2674ZM1.37233 39.7189L1.67289 38.4284C1.20208 38.3187 0.708912 38.4742 0.386083 38.834C0.0632658 39.1938 -0.0379848 39.7009 0.121904 40.1571L1.37233 39.7189ZM12.9722 43.781C13.6849 43.947 14.3973 43.5038 14.5633 42.7911C14.7293 42.0784 14.2861 41.3661 13.5734 41.2001L12.9722 43.781ZM4.36582 52.266C4.60787 52.9566 5.3639 53.3202 6.05449 53.0782C6.74509 52.8362 7.10871 52.0801 6.86667 51.3895L4.36582 52.266ZM167.25 5.735C165.99 5.32475 165.99 5.32442 165.99 5.32421C165.99 5.32428 165.99 5.32417 165.99 5.32431C165.99 5.3246 165.99 5.32531 165.989 5.32646C165.989 5.32876 165.987 5.33277 165.985 5.33847C165.982 5.34989 165.975 5.36806 165.967 5.39279C165.95 5.44226 165.924 5.51796 165.889 5.61827C165.819 5.8189 165.711 6.11784 165.564 6.50209C165.271 7.27077 164.824 8.37969 164.214 9.72495C162.993 12.4182 161.123 16.0443 158.531 19.7794C153.33 27.276 145.345 35.0415 134.004 36.8304L134.417 39.4481C146.782 37.4974 155.317 29.0607 160.708 21.2901C163.413 17.3916 165.358 13.6179 166.628 10.8196C167.263 9.41912 167.73 8.2594 168.041 7.44588C168.196 7.03902 168.311 6.71848 168.389 6.49739C168.428 6.38683 168.457 6.30111 168.477 6.24188C168.487 6.21227 168.495 6.18927 168.5 6.1731C168.503 6.16501 168.505 6.15862 168.507 6.15398C168.508 6.15165 168.508 6.14976 168.509 6.1483C168.509 6.14757 168.509 6.14681 168.509 6.14644C168.509 6.14579 168.51 6.14524 167.25 5.735ZM134.004 36.8304C125.148 38.2275 115.647 36.5955 108.382 32.7941C101.099 28.9829 96.3124 23.1503 96.2576 16.2287L93.6077 16.2497C93.6732 24.5238 99.3941 31.0818 107.154 35.1421C114.932 39.212 125.01 40.9322 134.417 39.4481L134.004 36.8304ZM96.2576 16.2287C96.2416 14.2002 97.0816 11.0373 98.8904 8.32693C100.682 5.64226 103.304 3.56809 106.79 3.32679L106.607 0.683114C102.057 0.998027 98.7776 3.72199 96.6862 6.85591C94.6119 9.96411 93.587 13.6403 93.6077 16.2497L96.2576 16.2287ZM106.79 3.32679C110.087 3.09861 112.447 4.40049 114.211 6.284C116.015 8.20966 117.182 10.7376 117.941 12.8395L120.433 11.9393C119.629 9.71127 118.313 6.78656 116.145 4.47227C113.938 2.11582 110.836 0.390421 106.607 0.683114L106.79 3.32679ZM117.941 12.8395C120.967 21.2178 117.74 28.9549 111.233 34.9948C104.704 41.0555 95.0158 45.2291 85.721 46.2553L86.0118 48.8893C95.8117 47.8074 106.047 43.4237 113.036 36.937C120.047 30.4296 123.933 21.6293 120.433 11.9393L117.941 12.8395ZM85.721 46.2553C77.749 47.1355 69.3253 45.6514 62.824 41.9973C56.3496 38.3582 51.8532 32.6242 51.4127 24.9278L48.767 25.0792C49.2704 33.875 54.4526 40.3319 61.5256 44.3074C68.5717 48.2677 77.5643 49.822 86.0118 48.8893L85.721 46.2553ZM51.4127 24.9278C51.2745 22.5139 51.8549 20.4733 53.06 18.8788C54.2673 17.2812 56.1875 16.0186 58.9272 15.3222L58.2744 12.7539C55.074 13.5674 52.5855 15.1114 50.9458 17.281C49.3038 19.4536 48.5988 22.1407 48.767 25.0792L51.4127 24.9278ZM58.9272 15.3222C61.4325 14.6854 63.4587 15.1941 65.1694 16.4251C66.9338 17.6947 68.426 19.7842 69.6426 22.384L72.0428 21.2608C70.7277 18.4505 68.9935 15.912 66.7172 14.2741C64.3872 12.5975 61.5583 11.9191 58.2744 12.7539L58.9272 15.3222ZM69.6426 22.384C73.7169 31.0908 69.408 40.2171 61.3002 47.2331C53.2116 54.2323 41.8197 58.6546 32.9313 57.9466L32.7209 60.5882C42.4857 61.3661 54.5525 56.5765 63.0342 49.237C71.4965 41.9143 76.8694 31.5752 72.0428 21.2608L69.6426 22.384ZM32.9313 57.9466C26.0317 57.397 18.4366 52.7361 12.4277 48.014C9.45504 45.6779 6.93009 43.3751 5.14816 41.6558C4.25787 40.7968 3.55474 40.0851 3.07579 39.5899C2.83636 39.3423 2.65307 39.1489 2.53054 39.0185C2.46928 38.9533 2.42322 38.9038 2.39295 38.8711C2.3778 38.8548 2.36661 38.8426 2.35943 38.8348C2.35585 38.8309 2.35327 38.8281 2.3517 38.8264C2.35091 38.8256 2.35038 38.825 2.35011 38.8247C2.34997 38.8245 2.34996 38.8245 2.34988 38.8244C2.34994 38.8245 2.35004 38.8246 1.37233 39.7189C0.394615 40.6131 0.39485 40.6134 0.395158 40.6137C0.395344 40.6139 0.395711 40.6143 0.396083 40.6147C0.396828 40.6155 0.397834 40.6166 0.39909 40.618C0.401613 40.6208 0.405156 40.6246 0.409706 40.6295C0.418806 40.6394 0.431948 40.6537 0.449073 40.6722C0.48331 40.7091 0.533445 40.763 0.598903 40.8327C0.729812 40.9721 0.922037 41.1748 1.17093 41.4321C1.66864 41.9468 2.39344 42.6803 3.30813 43.5628C5.1362 45.3267 7.72958 47.6923 10.7903 50.0976C16.8481 54.8582 24.9799 59.9716 32.7209 60.5882L32.9313 57.9466ZM1.07177 41.0093L12.9722 43.781L13.5734 41.2001L1.67289 38.4284L1.07177 41.0093ZM0.121904 40.1571L4.36582 52.266L6.86667 51.3895L2.62275 39.2806L0.121904 40.1571Z" fill="#6C5FBC"/>
    </symbol>
    <symbol id="quality-lines-icon" viewBox="0 0 56 62" fill="none" xmlns="http://www.w3.org/2000/svg">
        <path d="M29.4019 8.28731C19.9957 12.6113 11.1774 17.9211 2.00004 22.6496" stroke="#6C5FBC" stroke-width="2.65" stroke-miterlimit="1.5" stroke-linecap="round" stroke-linejoin="round"/>
        <path d="M54.464 22.7004C37.6407 24.3888 20.7416 27.9376 4.39179 32.1357" stroke="#6C5FBC" stroke-width="2.65" stroke-miterlimit="1.5" stroke-linecap="round" stroke-linejoin="round"/>
        <path d="M42.9382 49.8177C32.2122 45.3954 15.3032 43.8755 3.42795 42.0809" stroke="#6C5FBC" stroke-width="2.65" stroke-miterlimit="1.5" stroke-linecap="round" stroke-linejoin="round"/>
    </symbol>
    <symbol id="star-blue-icon" viewBox="0 0 26 27" fill="none" xmlns="http://www.w3.org/2000/svg">
        <path d="M15.9993 21.687C17.7033 22.6197 19.2019 21.4893 18.876 19.511L18.2909 15.9589L20.7696 13.4433C22.1482 12.0443 21.5786 10.2111 19.6708 9.92245L16.2453 9.40421L14.7209 6.18842C13.867 4.38709 12.013 4.36771 11.1575 6.17244L9.62555 9.40421L6.19999 9.92245C4.29484 10.2107 3.72066 12.0423 5.10119 13.4433L7.57994 15.9589L6.99479 19.511C6.66935 21.4865 8.16507 22.621 9.87149 21.687L12.9354 20.01L15.9993 21.687Z" fill="#6C5FBC"/>
        <mask id="mask0_1_16751" style="mask-type:luminance" maskUnits="userSpaceOnUse" x="4" y="4" width="18" height="19">
            <path d="M15.9993 21.687C17.7033 22.6197 19.2019 21.4893 18.876 19.511L18.2909 15.9589L20.7696 13.4433C22.1482 12.0443 21.5786 10.2111 19.6708 9.92245L16.2453 9.40421L14.7209 6.18842C13.867 4.38709 12.013 4.36771 11.1575 6.17244L9.62555 9.40421L6.19999 9.92245C4.29484 10.2107 3.72066 12.0423 5.10119 13.4433L7.57994 15.9589L6.99479 19.511C6.66935 21.4865 8.16507 22.621 9.87149 21.687L12.9354 20.01L15.9993 21.687Z" fill="white"/>
        </mask>
        <g mask="url(#mask0_1_16751)">
        </g>
    </symbol>
    <symbol id="bookmark-icon" viewBox="0 0 41 41" fill="none" xmlns="http://www.w3.org/2000/svg">
        <circle cx="20.2242" cy="20.2525" r="20.0426" fill="#DBD9EE"/>
        <path d="M24.6161 10.8844C21.7146 10.3979 18.7366 10.3979 15.8351 10.8844C14.775 11.0621 13.9309 11.8759 13.7183 12.9311C12.7446 17.7651 12.6915 22.7393 13.5617 27.593L13.916 29.5691C14.0253 30.1785 14.7681 30.422 15.2169 29.9957L19.4936 25.9328C19.9038 25.5431 20.5474 25.5431 20.9577 25.9328L25.2343 29.9957C25.6831 30.422 26.426 30.1785 26.5352 29.5691L26.8895 27.593C27.7598 22.7393 27.7066 17.7651 26.7329 12.9311C26.5204 11.8759 25.6762 11.0621 24.6161 10.8844Z" fill="#6C5FBC"/>
    </symbol>
    <symbol id="plus-icon" viewBox="0 0 16 16" fill="none" xmlns="http://www.w3.org/2000/svg">
        <mask id="path-1-inside-1_1_16678" fill="white">
            <path d="M15.2818 9.36025H8.94222V15.7891H6.41234V9.36025H0.102539V7.06848H6.41234V0.609863H8.94222V7.06848H15.2818V9.36025Z"/>
        </mask>
        <path d="M15.2818 9.36025H8.94222V15.7891H6.41234V9.36025H0.102539V7.06848H6.41234V0.609863H8.94222V7.06848H15.2818V9.36025Z" fill="black"/>
        <path d="M15.2818 9.36025V13.4693H19.3908V9.36025H15.2818ZM8.94222 9.36025V5.2512H4.83317V9.36025H8.94222ZM8.94222 15.7891V19.8982H13.0513V15.7891H8.94222ZM6.41234 15.7891H2.30329V19.8982H6.41234V15.7891ZM6.41234 9.36025H10.5214V5.2512H6.41234V9.36025ZM0.102539 9.36025H-4.00651V13.4693H0.102539V9.36025ZM0.102539 7.06848V2.95943H-4.00651V7.06848H0.102539ZM6.41234 7.06848V11.1775H10.5214V7.06848H6.41234ZM6.41234 0.609863V-3.49919H2.30329V0.609863H6.41234ZM8.94222 0.609863H13.0513V-3.49919H8.94222V0.609863ZM8.94222 7.06848H4.83317V11.1775H8.94222V7.06848ZM15.2818 7.06848H19.3908V2.95943H15.2818V7.06848ZM15.2818 5.2512H8.94222V13.4693H15.2818V5.2512ZM4.83317 9.36025V15.7891H13.0513V9.36025H4.83317ZM8.94222 11.6801H6.41234V19.8982H8.94222V11.6801ZM10.5214 15.7891V9.36025H2.30329V15.7891H10.5214ZM6.41234 5.2512H0.102539V13.4693H6.41234V5.2512ZM4.21159 9.36025V7.06848H-4.00651V9.36025H4.21159ZM0.102539 11.1775H6.41234V2.95943H0.102539V11.1775ZM10.5214 7.06848V0.609863H2.30329V7.06848H10.5214ZM6.41234 4.71891H8.94222V-3.49919H6.41234V4.71891ZM4.83317 0.609863V7.06848H13.0513V0.609863H4.83317ZM8.94222 11.1775H15.2818V2.95943H8.94222V11.1775ZM11.1727 7.06848V9.36025H19.3908V7.06848H11.1727Z" fill="white" mask="url(#path-1-inside-1_1_16678)"/>
    </symbol>
    <symbol id="heart-icon" viewBox="0 0 22 19" fill="none" xmlns="http://www.w3.org/2000/svg">
        <path fill-rule="evenodd" clip-rule="evenodd" d="M0.0214844 6.66277C0.0214844 3.27527 2.99334 0.666992 6.48165 0.666992C8.2798 0.666992 9.86206 1.51012 10.9975 2.60107C12.1329 1.51012 13.7152 0.666992 15.5133 0.666992C19.0016 0.666992 21.9735 3.27527 21.9735 6.66277C21.9735 8.98325 20.9839 11.0239 19.6129 12.7488C18.2443 14.4707 16.4541 15.9322 14.74 17.1197C14.0852 17.5732 13.4229 17.9917 12.8167 18.3004C12.2475 18.5903 11.593 18.8558 10.9975 18.8558C10.402 18.8558 9.74747 18.5903 9.17827 18.3004C8.57208 17.9917 7.90974 17.5732 7.25503 17.1197C5.54091 15.9322 3.75066 14.4707 2.38204 12.7488C1.01106 11.0239 0.0214844 8.98325 0.0214844 6.66277ZM6.48165 2.54859C3.87344 2.54859 1.90309 4.4667 1.90309 6.66277C1.90309 8.42332 2.65044 10.0625 3.85505 11.578C5.06202 13.0966 6.68602 14.4365 8.32655 15.573C8.94732 16.003 9.53203 16.369 10.0322 16.6237C10.5693 16.8972 10.8804 16.9742 10.9975 16.9742C11.1146 16.9742 11.4257 16.8972 11.9628 16.6237C12.463 16.369 13.0477 16.003 13.6684 15.573C15.309 14.4365 16.933 13.0966 18.1399 11.578C19.3445 10.0625 20.0919 8.42332 20.0919 6.66277C20.0919 4.4667 18.1215 2.54859 15.5133 2.54859C14.0154 2.54859 12.6167 3.44351 11.7433 4.57937C11.5652 4.81098 11.2896 4.94671 10.9975 4.94671C10.7053 4.94671 10.4298 4.81098 10.2517 4.57937C9.37831 3.44351 7.97959 2.54859 6.48165 2.54859Z" fill="#323142"/>
    </symbol>
    <symbol id="icon-arrow-down" viewBox="0 0 10 6" fill="none" xmlns="http://www.w3.org/2000/svg">
        <path d="M1.48047 1.11331L5.12832 4.31369L8.77552 1.11331" stroke="currentColor" stroke-width="1.4" stroke-linecap="round"/>
    </symbol>
    <symbol id="wallet-icon" viewBox="0 0 26 26" fill="none" xmlns="http://www.w3.org/2000/svg">
        <path d="M13.3524 2.77494L13.321 2.84823L10.2845 9.89494H7.30039C6.58839 9.89494 5.9078 10.0415 5.29004 10.3033L7.12239 5.92659L7.16427 5.82188L7.23757 5.65435C7.25851 5.59153 7.27945 5.52871 7.31086 5.47635C8.68251 2.30376 10.2322 1.58129 13.3524 2.77494Z" stroke="#936DFF" stroke-width="1.57059" stroke-linecap="round" stroke-linejoin="round"/>
        <path d="M18.9957 10.1043C18.5245 9.95773 18.0219 9.8949 17.5194 9.8949H10.2842L13.3206 2.8482L13.3521 2.7749C13.5091 2.82726 13.6557 2.90055 13.8128 2.96337L16.1268 3.93714C17.4147 4.47114 18.3151 5.02608 18.8596 5.6962C18.9643 5.82184 19.0481 5.93702 19.1214 6.07314C19.2156 6.21973 19.2889 6.36631 19.3308 6.52337C19.3727 6.61761 19.4041 6.71184 19.425 6.79561C19.7077 7.67514 19.5402 8.75361 18.9957 10.1043Z" stroke="#936DFF" stroke-width="1.57059" stroke-linecap="round" stroke-linejoin="round"/>
        <path d="M22.6303 15.0052V17.0469C22.6303 17.2563 22.6198 17.4657 22.6093 17.6752C22.4104 21.3294 20.3686 23.1722 16.4945 23.1722H8.32744C8.07615 23.1722 7.82485 23.1513 7.58403 23.1199C4.25438 22.9 2.47438 21.12 2.2545 17.7903C2.22309 17.5495 2.20215 17.2982 2.20215 17.0469V15.0052C2.20215 12.9006 3.47956 11.0892 5.30144 10.3039C5.92968 10.0421 6.5998 9.89551 7.3118 9.89551H17.5311C18.0441 9.89551 18.5467 9.9688 19.0074 10.1049C21.0911 10.7436 22.6303 12.6912 22.6303 15.0052Z" stroke="#936DFF" stroke-width="1.57059" stroke-linecap="round" stroke-linejoin="round"/>
        <path d="M7.12208 5.92676L5.28972 10.3035C3.46784 11.0888 2.19043 12.9002 2.19043 15.0048V11.9369C2.19043 8.96323 4.30549 6.4817 7.12208 5.92676Z" stroke="#936DFF" stroke-width="1.57059" stroke-linecap="round" stroke-linejoin="round"/>
        <path d="M22.6277 11.9358V15.0036C22.6277 12.7001 21.099 10.7421 19.0049 10.1139C19.5494 8.7527 19.7064 7.6847 19.4446 6.7947C19.4237 6.70046 19.3923 6.60623 19.3504 6.52246C21.2979 7.52764 22.6277 9.59034 22.6277 11.9358Z" stroke="#936DFF" stroke-width="1.57059" stroke-linecap="round" stroke-linejoin="round"/>
    </symbol>
    <symbol id="money-icon" viewBox="0 0 26 26" fill="none" xmlns="http://www.w3.org/2000/svg">
        <path d="M17.8963 22.2331H7.42572C4.28455 22.2331 2.19043 20.6625 2.19043 16.9978V9.6684C2.19043 6.00369 4.28455 4.43311 7.42572 4.43311H17.8963C21.0375 4.43311 23.1316 6.00369 23.1316 9.6684V16.9978C23.1316 20.6625 21.0375 22.2331 17.8963 22.2331Z" stroke="#22C55E" stroke-width="1.57059" stroke-miterlimit="10" stroke-linecap="round" stroke-linejoin="round"/>
        <path d="M12.6617 16.4738C14.3965 16.4738 15.8029 15.0674 15.8029 13.3326C15.8029 11.5978 14.3965 10.1914 12.6617 10.1914C10.9269 10.1914 9.52051 11.5978 9.52051 13.3326C9.52051 15.0674 10.9269 16.4738 12.6617 16.4738Z" stroke="#22C55E" stroke-width="1.57059" stroke-miterlimit="10" stroke-linecap="round" stroke-linejoin="round"/>
        <path d="M5.85645 10.7153V15.9506" stroke="#22C55E" stroke-width="1.57059" stroke-miterlimit="10" stroke-linecap="round" stroke-linejoin="round"/>
        <path d="M19.4668 10.7153V15.9506" stroke="#22C55E" stroke-width="1.57059" stroke-miterlimit="10" stroke-linecap="round" stroke-linejoin="round"/>
    </symbol>
    <symbol id="instagram-icon" viewBox="0 0 22 22" fill="none" xmlns="http://www.w3.org/2000/svg">
        <path fill-rule="evenodd" clip-rule="evenodd" d="M10.7721 0C12.1916 0.0506994 13.6618 0.0506994 15.0812 0.101392C16.3486 0.152085 17.5146 0.354867 18.6299 1.0139C20.0494 1.87572 20.9112 3.14309 21.2154 4.76533C21.3674 5.72853 21.4181 6.74243 21.4688 7.70564C21.5195 9.83483 21.4688 11.964 21.4688 14.0932C21.4688 15.2085 21.4181 16.3238 21.0633 17.3884C20.3535 19.4669 18.8834 20.7342 16.7542 21.1398C15.791 21.3426 14.7771 21.3426 13.8139 21.3933C11.6846 21.444 9.60615 21.3933 7.47694 21.3933C6.36165 21.3933 5.24635 21.3426 4.18176 20.9877C2.10325 20.278 0.835867 18.8078 0.430303 16.6786C0.227525 15.7154 0.227525 14.7015 0.176829 13.7383C0.126131 11.6091 0.176829 9.47996 0.176829 7.35077C0.176829 6.23549 0.227525 5.1202 0.582391 4.05559C1.29213 1.9771 2.76229 0.709734 4.89148 0.304173C5.8547 0.101399 6.8686 0.101399 7.83181 0.0506994C8.79502 0 9.75823 0 10.7721 0ZM19.5426 10.4939C19.4919 10.4939 19.5426 10.4939 19.5426 10.4939C19.4919 9.6321 19.4919 8.82097 19.4919 7.95916C19.4919 7.14805 19.4412 6.33692 19.3398 5.52581C19.137 3.70078 18.0724 2.4841 16.2981 2.12924C15.3855 1.92646 14.3716 1.92646 13.4591 1.92646C11.6341 1.87577 9.85976 1.87577 8.03473 1.92646C7.12222 1.92646 6.2097 1.97715 5.34788 2.12924C3.82702 2.38271 2.76243 3.24453 2.30617 4.76538C2.15408 5.27233 2.10339 5.77928 2.05269 6.28623C2.002 8.21264 2.002 10.139 2.002 12.0655C2.002 13.2821 2.05269 14.5495 2.15408 15.7662C2.30617 17.5912 3.42146 18.8586 5.2465 19.1627C6.159 19.3148 7.12222 19.3655 8.08543 19.3655C9.85976 19.4162 11.6341 19.3655 13.4591 19.3655C14.2703 19.3655 15.0814 19.3148 15.8925 19.2134C16.6529 19.1627 17.3627 18.9093 17.971 18.4023C18.9849 17.5912 19.3398 16.5266 19.3905 15.3099C19.4919 13.7891 19.4919 12.1668 19.5426 10.4939Z" fill="currentColor"/>
        <path fill-rule="evenodd" clip-rule="evenodd" d="M16.2471 10.6962C16.2471 13.7379 13.8137 16.1712 10.772 16.1712C7.73025 16.1712 5.29688 13.7379 5.29688 10.6455C5.29688 7.65453 7.78094 5.22119 10.8227 5.22119C13.8137 5.22119 16.2471 7.65453 16.2471 10.6962ZM10.7719 14.2448C12.6983 14.2448 14.3205 12.6226 14.3205 10.6962C14.3205 8.76976 12.6983 7.14752 10.7719 7.14752C8.79474 7.14752 7.22318 8.76976 7.22318 10.6962C7.17248 12.6226 8.79474 14.2448 10.7719 14.2448Z" fill="currentColor"/>
        <path d="M17.7184 4.96758C17.7184 5.67731 17.1607 6.28566 16.451 6.28566C15.7413 6.28566 15.1329 5.67731 15.1836 4.96758C15.1836 4.25785 15.7413 3.7002 16.451 3.7002C17.1607 3.7002 17.7184 4.25784 17.7184 4.96758Z" fill="currentColor"/>
    </symbol>
    <symbol id="in-icon" viewBox="0 0 22 21" fill="none" xmlns="http://www.w3.org/2000/svg">
        <path fill-rule="evenodd" clip-rule="evenodd" d="M21.6325 12.4811V20.3602H17.0315V12.9987C17.0315 11.1583 16.3989 9.89304 14.731 9.89304C13.4658 9.89304 12.7181 10.7557 12.373 11.5609C12.258 11.8484 12.2005 12.251 12.2005 12.6536V20.3602H7.59952C7.59952 20.3602 7.65703 7.88013 7.59952 6.61487H12.2005V8.57027C12.2005 8.57027 12.2005 8.62777 12.143 8.62777H12.2005V8.57027C12.8331 7.65008 13.8684 6.26979 16.3414 6.26979C19.332 6.26979 21.6325 8.28271 21.6325 12.4811ZM2.88298 0.000976562C1.33014 0.000976562 0.294922 1.03619 0.294922 2.35897C0.294922 3.68174 1.27263 4.71697 2.82546 4.71697H2.88298C4.49333 4.71697 5.47103 3.68175 5.47103 2.35897C5.41352 1.03619 4.43581 0.000976562 2.88298 0.000976562ZM0.525568 20.3602H5.06905V6.61489H0.525568V20.3602Z" fill="currentColor"/>
    </symbol>
    <symbol id="facebook-icon" viewBox="0 0 11 22" fill="none" xmlns="http://www.w3.org/2000/svg">
        <path fill-rule="evenodd" clip-rule="evenodd" d="M9.95256 10.6695H6.97166V21.338H2.52644V12.415V10.6695H0.43457V6.90414H2.52644V4.4462C2.52644 2.72041 3.36319 0.000976562 6.97166 0.000976562H10.2663V3.66174H7.913C7.54692 3.66174 6.97166 3.87094 6.97166 4.70768V6.90414H10.3186L9.95256 10.6695Z" fill="currentColor"/>
    </symbol>
    <symbol id="twitter-icon" viewBox="0 0 22 19" fill="none" xmlns="http://www.w3.org/2000/svg">
        <path fill-rule="evenodd" clip-rule="evenodd" d="M21.6154 2.82596C20.8121 3.1774 20.0088 3.42842 19.1052 3.52883C20.0088 2.97658 20.7117 2.1231 21.0129 1.11901C20.1595 1.62106 19.2056 1.97249 18.2517 2.1733C17.4484 1.31982 16.2937 0.767578 15.0386 0.767578C12.6287 0.767578 10.6707 2.72555 10.6707 5.13537C10.6707 5.48681 10.7209 5.83823 10.7711 6.13947C7.10619 5.93865 3.89307 4.23169 1.73426 1.57085C1.33262 2.22351 1.1318 2.97658 1.1318 3.77985C1.1318 5.28599 1.88488 6.64151 3.08979 7.44478C2.38692 7.44478 1.68406 7.24397 1.0816 6.89253V6.94273C1.0816 9.05133 2.58774 10.8587 4.59594 11.2603C4.2445 11.3607 3.84287 11.4109 3.44122 11.4109C3.14 11.4109 2.88897 11.3607 2.63795 11.3105C3.1902 13.0677 4.79676 14.3228 6.75475 14.373C5.2486 15.5277 3.39102 16.2306 1.33262 16.2306C0.981189 16.2306 0.629757 16.2306 0.27832 16.1804C2.23631 17.4355 4.49553 18.1383 7.00577 18.1383C15.0888 18.1383 19.4566 11.4611 19.4566 5.68762C19.4566 5.48681 19.4566 5.28599 19.4566 5.13537C20.3101 4.48272 21.0631 3.67944 21.6154 2.82596Z" fill="currentColor"/>
    </symbol>
    <symbol id="quotes-icon" viewBox="0 0 59 45" fill="none" xmlns="http://www.w3.org/2000/svg">
        <path fill-rule="evenodd" clip-rule="evenodd" d="M36.797 44.2511C33.6916 38.2474 32.139 31.7262 32.139 24.6874C32.139 17.5452 34.0281 11.645 37.8062 6.98701C41.5844 2.32901 47.4586 0 55.429 0V9.78182C52.6342 9.78182 50.5898 10.4029 49.2959 11.645C48.002 12.8872 47.3551 15.2679 47.3551 18.7873V20.34H58.6896V44.2511H36.797ZM4.65799 44.2513C1.55267 38.2477 0 31.7264 0 24.6877C0 17.5454 1.88908 11.6452 5.66723 6.98723C9.44538 2.32923 15.3196 0.000219731 23.29 0.000219731V9.78204C20.4952 9.78204 18.4508 10.4031 17.157 11.6452C15.8631 12.8874 15.2161 15.2681 15.2161 18.7875V20.3402H26.5506V44.2513H4.65799Z" fill="#DADADA"/>
    </symbol>
    <symbol id="search-icon" viewBox="0 0 35 35" fill="none" xmlns="http://www.w3.org/2000/svg">
        <circle cx="15.1401" cy="15" r="9.37834" transform="rotate(-45 15.1401 15)" stroke="currentColor" stroke-width="2"/>
        <path d="M22.5112 21.9678L27.2549 26.6003" stroke="currentColor" stroke-width="3" stroke-linecap="round" stroke-linejoin="round"/>
    </symbol>
    <symbol id="pizza-icon" viewBox="0 0 36 36" fill="none" xmlns="http://www.w3.org/2000/svg">
        <g clip-path="url(#clip0_1_14645)">
            <path d="M1.46143 20.9238V24.8014H32.1923C33.0562 24.8014 33.7153 20.8555 33.7153 20.8555L1.46143 20.9238Z" fill="#F2C05A"/>
            <path d="M1.46107 25.7501C0.928481 25.7501 0.510742 25.3334 0.510742 24.8016V20.9237C0.510742 20.4009 0.937046 19.9756 1.46107 19.9756L33.7379 19.9072C34.0061 19.9072 34.2837 20.0342 34.4449 20.2308C34.6302 20.4526 34.7015 20.7221 34.6474 20.9917C33.8598 25.7501 32.6649 25.7501 32.2153 25.7501H1.46107ZM31.9264 23.876L31.9903 23.7482C32.1343 23.4608 32.3005 22.9508 32.5295 22.0944L32.6073 21.8035L2.43436 21.8726V23.876H2.66562H31.9264Z" fill="#4C2F1B"/>
            <path d="M25.4414 1.73895C24.7823 1.3987 23.9639 1.48959 23.4185 1.9887L1.48389 20.9242H5.57562V31.832C5.57562 33.1247 6.62094 34.1676 7.9166 34.1676C9.21225 34.1676 10.2576 33.1247 10.2576 31.832V20.9242H12.6896V26.0719C12.6896 27.387 13.7805 28.4757 15.0991 28.4757C16.4174 28.4757 17.5086 27.3874 17.5086 26.0719V20.9242H20.9864C21.3275 22.2169 22.4868 23.1693 23.8732 23.1693C25.26 23.1693 26.4415 22.2169 26.76 20.9242L33.7607 20.9017C35.965 8.36101 28.4189 3.2359 25.4414 1.73895Z" fill="#FFDE8A"/>
            <path d="M18.2132 9.99305C19.554 9.99305 20.6226 8.92725 20.6226 7.58916C20.6226 6.6593 20.0998 5.8883 19.3496 5.48047L15.9629 8.40561C16.3039 9.33547 17.1674 9.99305 18.2132 9.99305Z" fill="#FF5C5C"/>
            <path d="M18.2132 10.4691C17.0083 10.4691 15.9174 9.69813 15.5082 8.56436C15.4401 8.38297 15.4853 8.17905 15.6445 8.0431L19.0312 5.11758C19.1675 4.98163 19.3948 4.95872 19.5537 5.04961C20.5083 5.54872 21.0767 6.52363 21.0767 7.56691C21.1 9.17649 19.8044 10.4691 18.2132 10.4691ZM16.531 8.54183C16.872 9.15435 17.5086 9.53966 18.2132 9.53966C19.2815 9.53966 20.1454 8.67816 20.1454 7.61197C20.1454 6.99983 19.8499 6.43275 19.3722 6.06997L16.531 8.54183Z" fill="#4C2F1B"/>
            <path d="M26.1914 12.0568C25.9185 13.2135 26.6687 14.3928 27.8277 14.6421C28.6461 14.8235 29.4414 14.5287 29.9417 13.9391L28.0325 10.3789C27.146 10.4923 26.3958 11.127 26.1914 12.0568Z" fill="#FF5C5C"/>
            <path d="M28.3052 15.1644C28.1234 15.1644 27.919 15.1418 27.7372 15.0964C26.3278 14.7791 25.4188 13.373 25.7369 11.9444C25.9868 10.8786 26.8733 10.0622 27.9871 9.92624C28.1689 9.90371 28.3737 9.99421 28.4644 10.1756L30.3736 13.7133C30.4647 13.8947 30.4418 14.0986 30.3055 14.2349C29.7827 14.8241 29.0554 15.1644 28.3052 15.1644ZM26.6459 12.1484C26.5548 12.602 26.6233 13.0553 26.8729 13.4181C27.1232 13.8034 27.4868 14.0757 27.9412 14.1665C28.4414 14.28 28.9639 14.144 29.3731 13.8263L27.8049 10.9012C27.2143 11.1051 26.7822 11.5584 26.6459 12.1484Z" fill="#4C2F1B"/>
            <path d="M7.89352 35.0933C6.07852 35.0933 4.60145 33.6201 4.60145 31.8089V21.8496H1.46082C1.05592 21.8496 0.713713 21.6092 0.589131 21.2367C0.439633 20.8619 0.549421 20.4486 0.857761 20.195L22.7966 1.25594C23.3051 0.823247 23.9498 0.583984 24.6112 0.583984C25.0469 0.583984 25.467 0.683418 25.8602 0.879955C28.5239 2.21959 37.0328 7.63018 34.6689 20.9974C34.5969 21.446 34.1967 21.7816 33.7373 21.7816L27.3906 21.8049L27.3264 21.9292C26.6493 23.237 25.3171 24.0496 23.8497 24.0496C22.3828 24.0496 21.0505 23.2374 20.3731 21.9292L20.3081 21.8041H18.4359V26.0037C18.4359 27.8397 16.9389 29.3331 15.0986 29.3331C13.2583 29.3331 11.7618 27.8397 11.7618 26.0041V21.8045H11.2078V31.7638C11.1868 33.5987 9.69996 35.0933 7.89352 35.0933ZM24.5879 2.48216C24.3738 2.48216 24.1756 2.55751 24.0144 2.70045L3.99917 19.9759H5.55216C5.81573 19.9759 6.04543 20.0695 6.19843 20.2396C6.38569 20.4268 6.47991 20.6607 6.47991 20.9244V31.8322C6.47991 32.6098 7.11411 33.2425 7.89313 33.2425C8.68579 33.2425 9.30636 32.623 9.30636 31.8322V20.924C9.30636 20.4012 9.73266 19.9759 10.2567 19.9759H12.6888C12.9519 19.9759 13.1816 20.0695 13.335 20.2396C13.5223 20.4268 13.6165 20.6607 13.6165 20.9244V26.072C13.6165 26.8745 14.2709 27.5274 15.0753 27.5274C15.8796 27.5274 16.5341 26.8745 16.5341 26.072V20.9015C16.5341 20.3783 16.9604 19.953 17.4844 19.953H20.9622C21.3966 19.953 21.7634 20.2392 21.8747 20.6649C22.1071 21.5676 22.9193 22.1984 23.849 22.1984C24.7787 22.1984 25.5908 21.5676 25.8232 20.6645C25.9345 20.2396 26.3013 19.9534 26.7354 19.9534L32.9376 19.9301L32.9652 19.732C34.5136 8.67385 27.9111 4.05096 25.0006 2.57654C24.8596 2.51245 24.7238 2.48216 24.5879 2.48216Z" fill="#4C2F1B"/>
            <path d="M33.7376 20.8552C36.0108 8.08807 28.1006 3.03093 25.2594 1.64779C24.691 1.37552 24.0089 1.4664 23.5316 1.87463L21.8042 3.37157C25.5775 6.18329 31.9191 11.3768 29.9869 20.8785L33.7376 20.8552Z" fill="#FFB07B"/>
            <path d="M29.9876 21.8044C29.7115 21.8044 29.4378 21.6743 29.2564 21.4564C29.0754 21.24 29.0003 20.9479 29.0552 20.6741C30.7191 12.4669 26.0259 7.6984 21.2158 4.11646C20.9885 3.95915 20.8507 3.6927 20.8308 3.38003C20.8133 3.09804 20.932 2.82887 21.157 2.64204L22.888 1.14199C23.3501 0.743867 23.9344 0.524414 24.5332 0.524414C24.914 0.524414 25.2936 0.615691 25.6319 0.788146C28.3524 2.11186 37.0288 7.47662 34.624 21.0198C34.5519 21.4688 34.1517 21.8044 33.6927 21.8044H29.9876ZM24.5465 2.42259C24.3896 2.42259 24.2354 2.4793 24.1112 2.58261L23.2851 3.31477L23.5031 3.48529C25.6833 5.19353 32.318 10.392 31.1217 19.6472L31.0882 19.9074H32.9168L32.9444 19.7085C34.5216 8.43949 27.784 3.90866 24.8143 2.48357C24.7353 2.44434 24.6418 2.42259 24.5465 2.42259Z" fill="#4C2F1B"/>
            <path d="M29.9874 20.8555C29.9874 20.8555 29.7826 23.3499 28.8735 24.8014H32.2147C32.2147 24.8014 33.3966 24.1663 33.7377 20.8555H29.9874Z" fill="#E2803D"/>
            <path d="M28.8734 25.7497C28.5234 25.7497 28.2178 25.5667 28.0551 25.2603C27.8849 24.9577 27.8916 24.5961 28.0695 24.3114C28.7239 23.2479 28.9933 21.3598 29.0362 20.7819C29.0716 20.3037 29.4796 19.9297 29.9647 19.9297H33.715C33.9934 19.9297 34.2425 20.0392 34.3998 20.2307C34.598 20.4486 34.6801 20.698 34.6447 20.9609C34.2593 24.605 32.8982 25.4984 32.6292 25.6405C32.5202 25.7116 32.3656 25.7497 32.2146 25.7497H28.8734ZM30.8056 21.9894C30.7157 22.4384 30.6036 22.9974 30.4252 23.5769L30.3334 23.8756H31.8579L31.9272 23.7769C32.0837 23.5536 32.3796 23.037 32.5996 22.0865L32.665 21.8038H30.843L30.8056 21.9894Z" fill="#4C2F1B"/>
            <path d="M11.9395 16.1163C11.9395 16.9805 12.6414 17.6808 13.5076 17.6808C14.3739 17.6808 15.0758 16.9805 15.0758 16.1163C15.0758 15.2521 14.3739 14.5518 13.5076 14.5518C12.6414 14.5518 11.9395 15.2521 11.9395 16.1163Z" fill="#FF5C5C"/>
            <path d="M13.5078 18.157C12.3939 18.157 11.4619 17.2501 11.4619 16.1163C11.4619 14.9825 12.371 14.0752 13.5078 14.0752C14.6442 14.0752 15.5533 14.9821 15.5533 16.1163C15.5533 17.2497 14.6442 18.157 13.5078 18.157ZM13.5078 15.0276C12.8942 15.0276 12.4169 15.5267 12.4169 16.1159C12.4169 16.7055 12.9168 17.2042 13.5078 17.2042C14.0988 17.2042 14.5987 16.7051 14.5987 16.1159C14.5987 15.5263 14.1213 15.0276 13.5078 15.0276Z" fill="#4C2F1B"/>
            <path d="M21.2361 17.6809H17.9402C17.7584 17.6809 17.5991 17.5221 17.5991 17.3407V16.5922C17.5991 16.4108 17.7584 16.252 17.9402 16.252H21.2361C21.4179 16.252 21.5772 16.4108 21.5772 16.5922V17.3407C21.5998 17.5221 21.4405 17.6809 21.2361 17.6809Z" fill="#3DE25C"/>
            <path d="M20.8727 18.1573H18.327C17.6679 18.1573 17.145 17.6356 17.145 16.978C17.145 16.3205 17.6679 15.7988 18.327 15.7988H20.8727C21.5319 15.7988 22.0547 16.3205 22.0547 16.978C22.0547 17.6356 21.5319 18.1573 20.8727 18.1573ZM18.327 16.7283C18.1907 16.7283 18.077 16.8417 18.077 16.9777C18.077 17.114 18.1907 17.2274 18.327 17.2274H20.8727C21.009 17.2274 21.1227 17.114 21.1227 16.9777C21.1227 16.8417 21.009 16.7283 20.8727 16.7283H18.327Z" fill="#4C2F1B"/>
            <path d="M23.509 14.2568L21.7586 12.3521C21.6905 12.2841 21.6905 12.1707 21.7586 12.1027L22.554 11.3772C22.6221 11.3092 22.7358 11.3092 22.8043 11.3772L24.5547 13.2819C24.6228 13.3499 24.6228 13.4633 24.5547 13.5313L23.7593 14.2568C23.7134 14.3252 23.5771 14.3252 23.509 14.2568Z" fill="#3DE25C"/>
            <path d="M23.6687 14.7098H23.6236C23.3962 14.7098 23.1914 14.5964 23.0326 14.4375L21.5325 12.8276C21.3733 12.6687 21.3052 12.4423 21.3052 12.2154C21.3052 11.989 21.4189 11.7847 21.5781 11.6258L22.078 11.1721C22.2372 11.0133 22.4646 10.9453 22.6919 10.9453C22.9193 10.9453 23.1237 11.0587 23.2829 11.2176L24.783 12.8276C24.9422 12.9864 25.0103 13.2133 25.0103 13.4401C25.0103 13.6669 24.8966 13.8708 24.7374 14.0297L24.2375 14.4834C24.0779 14.6189 23.8731 14.7098 23.6687 14.7098ZM22.3049 12.238L23.6687 13.712L24.0323 13.3717L22.6686 11.8977L22.3049 12.238Z" fill="#4C2F1B"/>
        </g>
        <defs>
            <clipPath id="clip0_1_14645">
                <rect width="34.5688" height="34.5688" fill="white" transform="translate(0.510742 0.524414)"/>
            </clipPath>
        </defs>
    </symbol>
    <symbol id="hotdog-icon" viewBox="0 0 51 51" fill="none" xmlns="http://www.w3.org/2000/svg">
        <g clip-path="url(#clip0_1_14628)">
            <path d="M27.0583 26.3561C20.8859 32.135 13.4933 33.3824 12.672 33.5065C11.4074 33.694 10.1434 33.3853 9.11565 32.6241C8.08753 31.8626 7.41217 30.7484 7.22579 29.4841C6.99111 27.9271 7.53962 26.3494 8.69093 25.2715C9.39841 24.6091 10.2766 24.1846 11.238 24.0338C11.4402 24.0016 16.414 23.1678 20.4394 19.399C22.8101 17.1795 24.379 14.3763 25.1017 11.0691C25.3115 10.1155 25.7931 9.25964 26.5048 8.59333C27.6561 7.51541 29.2629 7.06802 30.801 7.40462C32.0507 7.67344 33.1177 8.42095 33.81 9.49694C34.5022 10.5729 34.7307 11.8583 34.4565 13.1043C33.3082 18.3763 30.8204 22.8338 27.0583 26.3561Z" fill="#F4A360"/>
            <path d="M27.824 27.175C21.6436 32.9614 14.2574 34.3942 12.8393 34.6229C11.2804 34.8558 9.71987 34.4679 8.4487 33.5297C7.17521 32.5897 6.34559 31.2131 6.11408 29.6525C5.824 27.73 6.50053 25.7866 7.92425 24.4536C8.7951 23.6383 9.87485 23.1072 11.0468 22.9177C11.0853 22.9132 15.8533 22.1426 19.6655 18.5734C21.8637 16.5154 23.3208 13.9076 23.996 10.8223C24.253 9.64572 24.853 8.58963 25.7312 7.76741C27.155 6.43445 29.1387 5.88723 31.0372 6.30312C32.5824 6.64232 33.9025 7.5604 34.7528 8.88808C35.6054 10.2182 35.8898 11.8009 35.5537 13.3441C34.3547 18.8423 31.7541 23.4955 27.824 27.175ZM9.45672 26.0904C8.57956 26.9117 8.15793 28.1169 8.32854 29.3145C8.62623 31.314 10.496 32.6955 12.4969 32.3957C12.8085 32.3498 20.2222 31.2134 26.2841 25.538C29.8702 22.1805 32.2489 17.9177 33.3538 12.8685C33.5643 11.9135 33.3895 10.9328 32.8614 10.1087C32.3326 9.28392 31.5134 8.7146 30.5551 8.50619C29.3774 8.25024 28.1481 8.59001 27.266 9.41585C26.7202 9.92691 26.3482 10.5815 26.1904 11.3089C25.4179 14.8454 23.7393 17.8441 21.2007 20.2208C17.0438 24.1127 11.9649 25.0515 11.3993 25.1459C10.6726 25.2557 9.99942 25.5823 9.45672 26.0904Z" fill="#4C2F1B"/>
            <path d="M30.7133 29.6269C25.2803 34.7136 18.2655 37.1887 13.5082 37.8126C12.2402 37.9803 10.985 37.6417 9.96909 36.8615C8.9535 36.0811 8.30566 34.9562 8.14263 33.6845C7.94557 32.16 8.49665 30.6174 9.62027 29.5654C10.3519 28.8803 11.2651 28.4454 12.2608 28.3151C12.3387 28.302 14.319 28.0294 16.8919 27.0673C19.7705 25.9911 22.2249 24.5181 24.1836 22.6843C27.022 20.0269 28.73 16.6583 29.2541 12.6753C29.399 11.58 29.9212 10.5587 30.7286 9.8028C31.78 8.81843 33.205 8.36106 34.6317 8.54699C35.8964 8.71169 37.0288 9.36046 37.8083 10.3771C38.5878 11.3938 38.9216 12.6476 38.759 13.9166C37.9365 20.1141 35.2306 25.3977 30.7133 29.6269Z" fill="#FF6C4A"/>
            <path d="M31.4875 30.4545C25.8659 35.7177 18.591 38.2839 13.6573 38.9309C12.0889 39.1347 10.5361 38.7172 9.28481 37.7544C8.03711 36.7949 7.23624 35.4013 7.02917 33.8309C6.78221 31.9496 7.46478 30.0491 8.85449 28.748C9.75935 27.9009 10.8847 27.3665 12.1088 27.2025C12.1252 27.2003 14.0214 26.942 16.5007 26.0182C19.2427 24.993 21.57 23.5963 23.4175 21.8666C26.0581 19.3943 27.6461 16.2538 28.1371 12.5319C28.3113 11.1791 28.9579 9.91835 29.9588 8.98125C31.2609 7.76219 33.0179 7.20115 34.7786 7.44241C36.3406 7.64428 37.7321 8.44682 38.6993 9.70189C39.6635 10.9531 40.0797 12.5058 39.8722 14.0732C39.0198 20.5319 36.199 26.0433 31.4875 30.4545ZM10.3902 30.3883C9.53025 31.1935 9.10649 32.3711 9.25603 33.5385C9.51651 35.5439 11.3592 36.9619 13.3633 36.7006C17.9469 36.1006 24.7105 33.7127 29.9475 28.8096C34.2709 24.7618 36.8586 19.702 37.6384 13.77C37.7662 12.8005 37.5092 11.8388 36.9139 11.0632C36.318 10.2861 35.455 9.78806 34.4828 9.66105C33.3864 9.52016 32.2974 9.87059 31.4946 10.6222C30.8758 11.2016 30.4751 11.9836 30.3665 12.8247C29.8094 17.0719 27.9879 20.6657 24.9529 23.5072C22.8862 25.4421 20.3069 26.9947 17.286 28.1219C14.5285 29.1497 12.4346 29.4267 12.4138 29.4291C11.6521 29.5304 10.9522 29.8622 10.3902 30.3883Z" fill="#4C2F1B"/>
            <path d="M19.5807 31.6859C18.7095 32.5015 17.6082 31.9584 16.8763 31.6018C16.1105 31.2244 15.7089 31.0758 15.521 31.2518C15.0653 31.6785 14.3535 31.6553 13.9272 31.2C13.5008 30.7446 13.5246 30.0329 13.9804 29.6062C15.3115 28.3599 16.9094 29.1053 17.809 29.5448C17.7009 28.7245 17.5955 27.4658 18.575 26.5487C19.5623 25.6244 20.8428 25.7822 21.6917 25.8794C21.8459 25.9 22.0502 25.9256 22.2088 25.9349C22.2323 25.6881 22.2219 25.308 22.2149 25.0602C22.1901 24.1764 22.1655 23.1727 22.8453 22.5363C23.5527 21.8739 24.6496 21.971 25.6186 22.0609C25.7344 22.0721 25.8654 22.0842 26.001 22.0926C25.9978 22.0654 25.9947 22.0459 25.9877 22.0222C25.8569 21.1778 25.664 19.8973 26.5751 19.0442C27.2907 18.3743 28.3251 18.4771 29.2358 18.577C29.3249 18.5836 29.4328 18.595 29.5408 18.6063C29.5332 18.5982 29.5338 18.5904 29.5299 18.5862C29.0923 17.6544 28.2784 15.9278 29.5977 14.6927C30.0535 14.266 30.7652 14.2891 31.1915 14.7444C31.6179 15.1998 31.5941 15.9115 31.1384 16.3382C31.0652 16.5566 31.4051 17.2802 31.5719 17.6262C31.9551 18.4361 32.4797 19.5494 31.6043 20.369C30.9045 21.0242 29.8935 20.9217 29.0017 20.8265C28.751 20.799 28.3614 20.7595 28.1285 20.7673C28.1091 21.003 28.1758 21.4348 28.2138 21.6918C28.3315 22.4506 28.4617 23.3106 27.8142 23.9169C27.2105 24.4821 26.3383 24.3994 25.4116 24.3153C25.1414 24.2909 24.7394 24.2544 24.4685 24.2616C24.4532 24.4856 24.466 24.7957 24.4704 25.0092C24.4973 25.943 24.5201 27.001 23.7923 27.6824C23.0967 28.3336 22.1668 28.2222 21.4148 28.1316C20.8824 28.0681 20.331 27.9999 20.1112 28.2057C19.9352 28.3705 19.9789 28.8015 20.0559 29.3966C20.1575 30.0744 20.2844 31.0271 19.5807 31.6859Z" fill="#F9AF38"/>
            <path d="M33.8661 33.8118C28.1214 39.1902 21.4678 41.1622 20.1289 41.3667C18.8637 41.5542 17.7116 41.3734 16.8001 40.8405C15.7594 40.2334 15.0777 39.1849 14.8846 37.8895C14.6499 36.3325 15.1984 34.7548 16.3497 33.6769C17.0572 33.0145 17.9351 32.5896 18.8969 32.4385C19.099 32.4063 24.0728 31.5725 28.0986 27.8034C30.4692 25.5838 32.0381 22.7806 32.7609 19.4735C32.971 18.5202 33.4526 17.6644 34.1643 16.998C35.316 15.9198 36.9221 15.4724 38.4602 15.809C39.7331 16.0864 40.722 16.7498 41.3169 17.7218C41.8933 18.6663 42.0554 19.8331 41.7775 21.0983C40.4884 26.9668 37.2159 30.6755 33.8661 33.8118Z" fill="#F4A360"/>
            <path d="M34.6319 34.6379C27.8516 40.9859 20.3557 42.4694 20.2809 42.4836C18.7697 42.7113 17.3639 42.4809 16.226 41.8143C14.8822 41.0248 14.0081 39.6906 13.7651 38.0573C13.475 36.1348 14.1515 34.1914 15.5752 32.8584C16.4499 32.0395 17.5316 31.5112 18.7029 31.3308C18.7452 31.3254 23.5388 30.5288 27.3234 26.9856C29.5216 24.9275 30.9783 22.32 31.6539 19.2345C31.9112 18.0582 32.5106 17.0021 33.3888 16.1799C34.8125 14.8469 36.7962 14.2997 38.6948 14.7156C40.2745 15.0586 41.5106 15.8969 42.269 17.1398C43.0016 18.3403 43.2088 19.7935 42.8688 21.3423C41.5249 27.508 38.1157 31.3762 34.6319 34.6379ZM17.1117 34.4988C16.2335 35.321 15.8104 36.5275 15.98 37.7261C16.2624 39.6137 17.7835 40.5835 19.9499 40.2595C20.0148 40.2494 26.8792 38.8103 33.088 32.9973C36.3043 29.9861 39.448 26.4322 40.667 20.8633C40.8868 19.8641 40.766 18.965 40.3166 18.2643C39.8817 17.5862 39.1539 17.1201 38.2104 16.9149C37.0323 16.6593 35.803 16.999 34.9213 17.8245C34.3758 18.3353 34.0038 18.9898 33.8457 19.7176C33.0732 23.2541 31.3942 26.2531 28.856 28.6295C24.6959 32.5243 19.6198 33.4605 19.0546 33.5546C18.3275 33.6641 17.654 33.991 17.1117 34.4988Z" fill="#4C2F1B"/>
            <path d="M24.8597 37.3496C24.7437 37.4583 24.5827 37.5189 24.4133 37.4981C24.105 37.4647 23.8813 37.1864 23.9189 36.8738C24.1004 35.2723 22.7991 34.4516 22.7459 34.4193C22.48 34.2555 22.3987 33.9122 22.5588 33.6427C22.7226 33.377 23.0627 33.2912 23.3318 33.4507C23.4154 33.5 25.309 34.6653 25.0412 36.9996C25.0178 37.1418 24.9555 37.26 24.8597 37.3496ZM32.5401 32.1078C32.4683 32.1751 32.3777 32.2224 32.2759 32.25C31.9714 32.3175 31.6721 32.1258 31.6052 31.8217C31.2523 30.2031 29.8469 30.0722 29.8355 30.0678C29.5266 30.0421 29.2955 29.7714 29.3215 29.4625C29.3471 29.1533 29.6183 28.9223 29.9272 28.948C30.6994 29.0118 32.2821 29.6439 32.7052 31.5786C32.7485 31.7773 32.68 31.9768 32.5401 32.1078Z" fill="#4C2F1B"/>
            <path d="M38.3708 24.5053C38.3066 24.5654 38.2277 24.609 38.1415 24.6371C37.8408 24.7241 37.5329 24.5477 37.4458 24.2467C37.0372 22.8006 35.4749 22.831 35.4093 22.8326C35.0994 22.8381 34.84 22.6012 34.8269 22.2907C34.8139 21.9808 35.0589 21.7212 35.3691 21.7082C36.238 21.6742 38.0131 22.0959 38.5323 23.9406C38.5877 24.1517 38.5187 24.3668 38.3708 24.5053Z" fill="#4C2F1B"/>
            <path d="M39.6893 9.2462C39.5855 9.34336 39.4552 9.41282 39.3148 9.44698L37.9253 9.77373C37.4995 9.87198 37.0704 9.62234 36.9489 9.20372L36.5638 7.87043C36.477 7.56976 36.5649 7.25474 36.7928 7.04139C37.0568 6.79423 37.4456 6.74505 37.7572 6.92531L39.5324 7.93187C39.7607 8.06325 39.9118 8.28857 39.9455 8.54947C39.975 8.8065 39.8811 9.06666 39.6893 9.2462Z" fill="#FF6C4A"/>
            <path d="M37.1741 7.44895C37.2502 7.37772 37.3669 7.3506 37.4772 7.41226L39.2522 8.41847C39.4155 8.51276 39.4241 8.72224 39.3042 8.8345C39.2723 8.86437 39.2328 8.88618 39.1862 8.90029L37.7967 9.22704C37.6602 9.25759 37.5273 9.17957 37.4888 9.05063L37.1036 7.70952C37.0757 7.60809 37.1061 7.51262 37.1741 7.44895ZM36.4038 6.62616C36.0199 6.98557 35.8744 7.51881 36.0162 8.02299L36.4016 9.35595C36.6066 10.0632 37.3319 10.4859 38.0501 10.3156L39.4396 9.98885C39.6775 9.93103 39.8946 9.81785 40.0706 9.65308C40.3907 9.35341 40.5526 8.90935 40.4971 8.47419C40.4456 8.04256 40.1836 7.65096 39.8036 7.43688L38.0283 6.43032C37.5043 6.13481 36.8476 6.21062 36.4038 6.62616Z" fill="#4C2F1B"/>
            <path d="M7.81339 36.9466C7.62162 37.1261 7.35585 37.2027 7.09773 37.1519C6.83996 37.1007 6.62867 36.939 6.50864 36.6991L5.62104 34.8614C5.46551 34.5351 5.53631 34.1539 5.80415 33.9032C6.03203 33.6898 6.35183 33.6224 6.64647 33.7291L7.95154 34.2012C8.36058 34.3499 8.58245 34.7949 8.45608 35.213L8.03864 36.5779C7.99505 36.7239 7.91751 36.8491 7.81339 36.9466Z" fill="#FF6C4A"/>
            <path d="M6.1892 34.3225C6.25721 34.2588 6.35086 34.231 6.4542 34.269L7.75891 34.7413C7.88505 34.7882 7.95776 34.9298 7.91469 35.0602L7.49725 36.4251C7.48043 36.4711 7.45574 36.5087 7.42384 36.5386C7.30394 36.6508 7.09547 36.6284 7.01213 36.4593L6.12453 34.6217C6.07804 34.5088 6.11312 34.3937 6.1892 34.3225ZM5.41886 33.4997C4.97503 33.9153 4.84871 34.566 5.11665 35.1164L6.00424 36.954C6.19647 37.3511 6.56638 37.6345 6.99369 37.7143C7.42879 37.7946 7.87835 37.6656 8.19808 37.3662C8.37407 37.2015 8.50512 36.9894 8.57463 36.7587L8.99207 35.3937C9.20888 34.6879 8.83557 33.9364 8.13876 33.6889L6.83404 33.2166C6.3444 33.0302 5.80275 33.1403 5.41886 33.4997Z" fill="#4C2F1B"/>
        </g>
        <defs>
            <clipPath id="clip0_1_14628">
                <rect width="44.9726" height="25.6986" fill="white" transform="translate(0.611328 31.2861) rotate(-43.1142)"/>
            </clipPath>
        </defs>
    </symbol>
    <symbol id="doughnut-icon" viewBox="0 0 35 35" fill="none" xmlns="http://www.w3.org/2000/svg">
        <g clip-path="url(#clip0_1_14605)">
            <path d="M17.5283 1.2832C8.51577 1.2832 1.18994 8.58696 1.18994 17.6218C1.18994 26.635 8.49361 33.9604 17.5283 33.9604C26.5414 33.9604 33.8667 26.6567 33.8667 17.6218C33.8667 8.58696 26.5414 1.2832 17.5283 1.2832ZM17.5283 23.0385C14.5315 23.0385 12.0896 20.5965 12.0896 17.5997C12.0896 14.6028 14.5315 12.1608 17.5283 12.1608C20.5252 12.1608 22.9671 14.6028 22.9671 17.5997C22.9671 20.6191 20.5256 23.0385 17.5283 23.0385Z" fill="#EDB66B"/>
            <path d="M10.1541 22.9485C9.75034 22.9485 9.41042 22.7996 9.15515 22.5447C8.55995 21.9282 8.58122 20.8659 8.62377 19.6121C8.64504 18.5281 8.68759 17.168 8.17748 16.637C8.07112 16.5094 7.85884 16.3609 7.37 16.3396H7.28491C6.75354 16.3396 6.37107 16.446 6.15834 16.6796C5.73333 17.1259 5.79715 18.1248 5.83969 18.9323C5.90351 19.7823 5.94606 20.5264 5.45722 20.9515C5.09603 21.2914 4.6072 21.4616 4.07582 21.4616C3.03434 21.4616 1.80185 20.7392 1.39811 19.8891C1.35601 19.8036 1.33473 19.7398 1.33473 19.6547L1.31346 19.442C1.24964 18.6345 1.16455 17.7419 1.16455 17.3594C1.16455 8.34849 8.49613 1.03809 17.4852 1.03809C26.4743 1.03809 33.8063 8.36976 33.8063 17.3594C33.8063 17.7206 33.7851 18.1031 33.7638 18.4647C33.6787 19.5909 32.7649 20.4622 31.66 20.4622C31.4264 20.4622 31.1712 20.4196 30.9376 20.3345C29.8749 19.9308 28.9823 19.1658 28.1323 18.4217C26.8998 17.3377 25.7306 16.3392 24.0731 16.2966C23.0317 16.2754 22.0965 15.7014 21.6082 14.8089C20.4182 12.5987 20.2693 12.5136 17.2729 12.5136C11.7478 12.5136 11.7478 15.6163 11.7478 16.6366C11.7478 17.2105 11.7903 17.8265 11.8116 18.4217C11.918 20.1644 12.003 21.6942 11.2589 22.4809C11.0254 22.7787 10.6216 22.9485 10.1541 22.9485Z" fill="#86522C"/>
            <path d="M17.5281 1.73961C26.156 1.73961 33.1689 8.73136 33.1689 17.3806C33.1689 17.7418 33.1477 18.103 33.1264 18.4434C33.0626 19.2083 32.4253 19.7823 31.7241 19.7823C31.5752 19.7823 31.4055 19.761 31.2566 19.6972C28.8763 18.8046 27.3251 15.6806 24.159 15.6172C23.3941 15.5959 22.65 15.1709 22.2888 14.4906C20.9499 11.983 20.5036 11.8341 17.3371 11.8341C13.8093 11.8341 11.1104 13.0241 11.1104 16.637C11.1104 19.2296 11.7694 22.2473 10.1752 22.2473C8.07145 22.2473 10.9827 15.7444 7.41287 15.6593H7.30651C3.84259 15.6593 5.75537 19.7823 5.03298 20.4621C4.77771 20.6961 4.45906 20.7808 4.11913 20.7808C3.26911 20.7808 2.33399 20.1856 2.07872 19.6121C2.03617 19.1658 1.92981 17.8269 1.92981 17.3806C1.88726 8.73136 8.9002 1.73961 17.5281 1.73961ZM17.5281 0.336914C8.13526 0.336914 0.505859 7.96641 0.505859 17.3594C0.505859 17.7631 0.590951 18.677 0.654769 19.5057L0.676042 19.718C0.697315 19.8882 0.73986 20.0579 0.803679 20.2069C1.33506 21.3117 2.78028 22.1622 4.09786 22.1622C4.79898 22.1622 5.43672 21.9282 5.94682 21.4819C6.69049 20.8233 6.62667 19.8457 6.56285 18.8893C6.54158 18.4004 6.45648 17.4015 6.69049 17.1679C6.73303 17.1254 6.92404 17.0403 7.30651 17.0403H7.37033C7.43415 17.0403 7.62516 17.0403 7.68898 17.1041C8.00763 17.4227 7.96508 18.8254 7.94381 19.5904C7.90126 20.9293 7.87999 22.2043 8.6662 23.0118C9.04867 23.4155 9.58004 23.6283 10.1752 23.6283C10.8343 23.6283 11.4077 23.3943 11.8327 22.9271C12.7679 21.9282 12.6828 20.2707 12.5764 18.3579C12.5339 17.7839 12.5126 17.1679 12.5126 16.6152C12.5126 15.595 12.5126 13.1938 17.3366 13.1938C20.0356 13.1938 20.0356 13.1938 21.0554 15.1279C21.6506 16.2541 22.8405 16.9556 24.1156 16.9769C25.5182 16.9982 26.5385 17.8903 27.7284 18.9318C28.6423 19.718 29.5774 20.5472 30.746 20.9722C31.0434 21.0786 31.3838 21.1424 31.7024 21.1424C33.1689 21.1424 34.4014 19.9946 34.4861 18.5072C34.5073 18.1248 34.5286 17.721 34.5286 17.3385C34.5508 7.98769 26.9214 0.336914 17.5281 0.336914Z" fill="#4C2F1B"/>
            <path d="M19.8738 32.6762C19.9922 32.9856 20.4779 33.0871 20.9588 32.9027C21.4396 32.7188 21.7334 32.319 21.6151 32.0097C21.4968 31.7003 21.0111 31.5993 20.5302 31.7832C20.0493 31.9676 19.7555 32.3673 19.8738 32.6762Z" fill="#E3A358"/>
            <path d="M28.831 26.9525C29.038 27.4931 29.5414 27.8734 30.1517 27.9501C30.762 28.0263 31.386 27.7874 31.7892 27.3234C32.1925 26.8589 32.3135 26.2398 32.1066 25.6991C31.8996 25.158 31.3961 24.7782 30.7859 24.7015C30.1756 24.6253 29.5512 24.8641 29.1479 25.3282C28.7446 25.7926 28.624 26.4118 28.831 26.9525Z" fill="#E3A358"/>
            <path d="M13.3626 33.6976C13.5696 34.2383 14.0731 34.6185 14.6833 34.6952C15.2936 34.7714 15.918 34.5325 16.3213 34.0685C16.7246 33.6041 16.8456 32.9849 16.6386 32.4442C16.4317 31.9035 15.9282 31.5233 15.318 31.4466C14.7077 31.3704 14.0832 31.6093 13.6799 32.0733C13.2766 32.5377 13.1557 33.1569 13.3626 33.6976Z" fill="#E3A358"/>
            <path d="M9.95763 31.1998C10.2825 31.2733 10.6078 31.2304 10.8116 31.0863C11.0151 30.9423 11.0656 30.7198 10.9442 30.5018C10.8227 30.2841 10.5479 30.1042 10.2231 30.0306C9.89824 29.9566 9.57294 30.0001 9.36908 30.1441C9.16566 30.2881 9.11513 30.5106 9.23657 30.7282C9.35756 30.9463 9.63277 31.1258 9.95763 31.1998Z" fill="#E3A358"/>
            <path d="M16.9117 24.6018C17.1824 24.6635 17.4466 24.6586 17.6048 24.5886C17.763 24.5185 17.7909 24.3949 17.6788 24.2637C17.5662 24.1325 17.33 24.0137 17.0592 23.9521C16.7885 23.8905 16.5243 23.8954 16.3661 23.9654C16.2079 24.0354 16.18 24.1591 16.2921 24.2903C16.4047 24.4219 16.6409 24.5402 16.9117 24.6018Z" fill="#E3A358"/>
            <path d="M4.6833 26.1244C4.89248 26.1718 5.10211 26.1413 5.23418 26.0446C5.36624 25.9476 5.39948 25.7991 5.32281 25.6551C5.2457 25.5106 5.06975 25.3927 4.86102 25.3453C4.65183 25.2979 4.44221 25.328 4.31058 25.4251C4.17851 25.5217 4.14483 25.6706 4.22194 25.8146C4.29817 25.9587 4.47456 26.077 4.6833 26.1244Z" fill="#E3A358"/>
            <path d="M13.1033 23.037C13.379 23.224 13.6715 23.341 13.8709 23.3437C14.0704 23.3463 14.1466 23.2342 14.0704 23.0498C13.9946 22.865 13.7779 22.6363 13.5022 22.4493C13.2265 22.2623 12.934 22.1453 12.7342 22.1426C12.5347 22.14 12.4589 22.2521 12.5347 22.4365C12.611 22.6213 12.8277 22.85 13.1033 23.037Z" fill="#E3A358"/>
            <path d="M17.5292 34.9057C7.99812 34.9057 0.244629 27.1521 0.244629 17.6217C0.244629 8.09051 7.99812 0.336914 17.5292 0.336914C27.0599 0.336914 34.8134 8.09051 34.8134 17.6217C34.8134 27.1521 27.0594 34.9057 17.5292 34.9057ZM17.5292 2.22845C9.05379 2.22845 2.15874 9.12403 2.15874 17.5991C2.15874 26.0742 9.05423 32.9698 17.5292 32.9698C26.0042 32.9698 32.8997 26.0747 32.8997 17.5991C32.8997 9.12358 26.0042 2.22845 17.5292 2.22845ZM17.5292 24.0059C14.0086 24.0059 11.1447 21.142 11.1447 17.6217C11.1447 14.0891 14.0086 11.215 17.5292 11.215C21.0494 11.215 23.9133 14.0789 23.9133 17.5996C23.9133 21.1318 21.0494 24.0059 17.5292 24.0059ZM17.5292 13.1282C15.0638 13.1282 13.0584 15.1341 13.0584 17.5991C13.0584 20.0641 15.0642 22.07 17.5292 22.07C19.9942 22.07 22.0001 20.0641 22.0001 17.5991C21.9996 15.1341 19.9942 13.1282 17.5292 13.1282Z" fill="#4C2F1B"/>
            <path d="M18.4611 8.6978L14.7317 6.23367C14.5762 6.14459 14.554 5.94515 14.6426 5.78959L15.0645 5.16824C15.1532 5.01268 15.3531 4.99052 15.5086 5.07916L19.238 7.54329C19.3936 7.63237 19.4157 7.83225 19.3266 7.98737L18.9047 8.60916C18.8165 8.76428 18.6167 8.78644 18.4611 8.6978Z" fill="#DB79AD"/>
            <path d="M3.65434 12.6042L4.63112 10.4733C4.6976 10.3178 4.89747 10.2513 5.05303 10.3178L5.74129 10.6284C5.89685 10.6949 5.96333 10.8948 5.89685 11.0504L4.92008 13.1812C4.85315 13.3368 4.65372 13.4032 4.49816 13.3368L3.8099 13.0261C3.65434 12.937 3.56571 12.7597 3.65434 12.6042ZM27.8956 12.4265L26.0307 10.9834C25.8977 10.8726 25.8751 10.6728 25.9642 10.5394L26.4304 9.94017C26.5412 9.80721 26.7411 9.78461 26.8745 9.87369L28.7394 11.3167C28.8724 11.4279 28.895 11.6274 28.8059 11.7608L28.3397 12.3604C28.2289 12.5155 28.029 12.5373 27.8956 12.4265Z" fill="#F6B173"/>
            <path d="M23.2114 9.40767L21.9239 6.49946C21.8575 6.3439 21.9239 6.14403 22.0795 6.07755L22.7673 5.76687C22.9229 5.70039 23.1227 5.76687 23.1892 5.92243L24.4767 8.83064C24.5431 8.9862 24.4767 9.18563 24.3211 9.25255L23.6328 9.56323C23.4782 9.62971 23.3005 9.56279 23.2114 9.40767ZM8.91516 14.8243L7.62771 11.9161C7.56123 11.7606 7.62771 11.5611 7.78327 11.4942L8.47153 11.1835C8.62709 11.1171 8.82652 11.1835 8.89344 11.3391L10.1809 14.2473C10.2474 14.4029 10.1809 14.6027 10.0253 14.6692L9.33707 14.9799C9.1598 15.0685 8.98208 14.9799 8.91516 14.8243Z" fill="#F7E774"/>
            <path d="M9.51541 8.80848L10.8476 5.92243C10.9141 5.76687 11.114 5.70039 11.2695 5.76687L11.9578 6.07755C12.1133 6.14403 12.1798 6.3439 12.1133 6.49946L10.7811 9.38551C10.7147 9.54107 10.5148 9.60755 10.3592 9.54107L9.67096 9.2304C9.51541 9.16392 9.44893 8.9862 9.51541 8.80848ZM29.561 16.0458L30.0051 12.8934C30.0273 12.7156 30.1828 12.6048 30.3605 12.627L31.1153 12.7378C31.293 12.76 31.4038 12.9155 31.3816 13.0928L30.9376 16.2452C30.9154 16.4225 30.7599 16.5337 30.5826 16.5115L29.8278 16.4008C29.6497 16.3786 29.5389 16.2235 29.561 16.0458Z" fill="#EC6A69"/>
            <path d="M7.8632 26.9096C8.01831 26.9894 8.19071 27.0062 8.31569 26.9544C8.44022 26.9025 8.49828 26.7895 8.4677 26.6579C8.43712 26.5262 8.32233 26.3964 8.16722 26.3166C8.01211 26.2368 7.83971 26.22 7.71473 26.2719C7.5902 26.3237 7.53214 26.4367 7.56272 26.5684C7.5933 26.6995 7.70764 26.8298 7.8632 26.9096Z" fill="#E3A358"/>
            <path d="M24.1871 27.689C24.2265 27.7927 24.39 27.8401 24.6147 27.8131C24.8399 27.7865 25.0929 27.6894 25.2782 27.5591C25.4634 27.4288 25.5534 27.2843 25.5139 27.1806C25.4741 27.0769 25.311 27.0295 25.0858 27.0561C24.8607 27.0827 24.6076 27.1793 24.4224 27.31C24.2371 27.4408 24.1472 27.5853 24.1871 27.689Z" fill="#E3A358"/>
            <path d="M14.2217 26.5245C14.4322 26.6801 14.6821 26.7488 14.8771 26.7049C15.0721 26.661 15.1829 26.5113 15.167 26.3118C15.1515 26.1128 15.0123 25.8939 14.8018 25.7383C14.5913 25.5828 14.3413 25.5141 14.1463 25.5579C13.9513 25.6018 13.8405 25.7516 13.8565 25.9511C13.8716 26.1509 14.0112 26.3694 14.2217 26.5245Z" fill="#E3A358"/>
            <path d="M20.4416 29.504C20.4668 29.6861 20.7137 29.8022 20.9929 29.7637C21.2725 29.7251 21.4782 29.5461 21.4529 29.3639C21.4276 29.1818 21.1808 29.0652 20.9016 29.1042C20.6219 29.1428 20.4163 29.3218 20.4416 29.504Z" fill="#E3A358"/>
        </g>
        <defs>
            <clipPath id="clip0_1_14605">
                <rect width="34.5688" height="34.5688" fill="white" transform="translate(0.244629 0.336914)"/>
            </clipPath>
        </defs>
    </symbol>
    <symbol id="icecream-icon" viewBox="0 0 23 42" fill="none" xmlns="http://www.w3.org/2000/svg">
        <g clip-path="url(#clip0_1_14583)">
            <path d="M4.89365 16.5163C4.89365 16.5163 2.21761 11.7037 8.30721 8.79233C14.3973 5.88099 13.1976 2.89934 13.1517 1.06836C13.1517 1.06836 18.2725 2.85263 18.2725 8.18185C18.2725 14.356 4.89365 16.5163 4.89365 16.5163Z" fill="white"/>
            <path d="M14.4894 3.08785C14.4894 3.08785 15.8272 7.97123 13.2207 9.77863C10.6142 11.5865 6.85391 12.1262 5.47021 14.2629C5.47021 14.2629 7.43101 15.2725 10.5451 14.4742C13.6592 13.676 18.2724 8.93366 18.2724 8.93366C18.2724 8.93366 20.2564 1.37388 14.4894 3.08785Z" fill="#5A85FF"/>
            <path d="M14.5355 3.22793C14.5355 3.22793 16.9807 6.35063 16.4041 8.43968C15.8274 10.5292 13.2209 11.8908 12.8288 11.9846C12.4366 12.0785 6.80823 13.2995 5.49316 14.2619C5.49316 14.2619 11.675 14.2147 13.4054 13.2523C15.1585 12.2899 18.9184 9.75407 18.065 7.73532C17.2116 5.71656 16.4273 2.21833 14.5355 3.22793Z" fill="#507BE1"/>
            <path d="M5.10927 17.5141C5.01791 17.4951 4.95731 17.4951 4.89358 17.4951C4.54732 17.4951 4.22914 17.3087 4.06336 17.0084C3.86104 16.6134 2.90471 14.5661 3.62129 12.2947C4.2024 10.4741 5.65071 8.99827 7.92479 7.90929C12.6414 5.67873 12.4507 3.68039 12.2822 1.91744C12.259 1.61265 12.2359 1.35322 12.2127 1.09379C12.2136 0.795806 12.3597 0.490566 12.6048 0.298714C12.7684 0.180337 12.972 0.112305 13.1721 0.112305C13.2795 0.112305 13.3843 0.131354 13.4832 0.168999C14.4707 0.551342 19.2568 2.6862 19.2568 8.22905C19.2568 15.0568 6.13779 17.3454 5.10927 17.5141ZM14.2515 3.1715C14.173 5.02335 13.4761 7.43579 8.73763 9.67633C6.96355 10.5304 5.85838 11.6057 5.45151 12.8734C5.17656 13.7633 5.2844 14.6246 5.42344 15.191L5.4787 15.416L5.70196 15.3702C6.89047 15.1253 17.3116 12.8435 17.3116 8.18324C17.3116 5.53677 15.8535 3.89673 14.6303 2.98645L14.2706 2.71886L14.2515 3.1715Z" fill="#4C2F1B"/>
            <path d="M2.51714 23.2306C2.51714 23.2306 -0.50471 18.0184 5.95432 15.4364C12.0903 12.9713 13.5203 15.3892 17.9263 9.77832C18.5493 10.9285 20.7864 14.1215 17.6727 18.1359C16.3113 19.897 5.72348 23.3245 2.51714 23.2306Z" fill="white"/>
            <path d="M17.6959 11.3281C17.6959 11.3281 18.6651 16.1176 10.1762 16.7984C4.5015 17.2447 2.42529 21.7054 2.42529 21.7054L15.5042 19.3809L19.2872 15.601L17.6959 11.3281Z" fill="#FF5C68"/>
            <path d="M8.35348 40.3221C7.77683 40.3221 7.26925 39.8994 7.177 39.3125L5.88511 31.4947C5.81604 31.1427 5.93146 30.7672 6.16229 30.5086C6.39269 30.227 6.71577 30.0859 7.08476 30.0859H14.997C15.3428 30.0859 15.6891 30.2501 15.9195 30.5086C16.1503 30.7908 16.2426 31.1427 16.1967 31.4947L14.9048 39.3125C14.8125 39.8994 14.3049 40.3221 13.7283 40.3221H8.35348Z" fill="#FFCD8A"/>
            <path d="M8.35344 41.3001C7.29818 41.3001 6.37794 40.5095 6.21306 39.4618L4.92072 31.6417C4.81555 30.9777 4.9889 30.3223 5.39621 29.8456C5.82268 29.3467 6.42964 29.0605 7.06155 29.0605H14.9738C15.6061 29.0605 16.2131 29.3467 16.6391 29.8456C17.0455 30.3423 17.2202 30.9981 17.1146 31.6422L15.8227 39.4596C15.6342 40.5245 14.7336 41.2996 13.6819 41.2996H8.35344V41.3001ZM8.15157 39.3199H13.8833L15.2554 31.0172H6.77946L8.15157 39.3199Z" fill="#4C2F1B"/>
            <path d="M17.3065 33.4478L11.1014 33.793H10.9562L4.75115 33.4474C4.14509 33.4229 3.61166 32.9539 3.51496 32.3371L2.47307 26.787C2.32779 25.9484 2.95792 25.1592 3.7819 25.1592H18.2762C19.1247 25.1592 19.7548 25.9484 19.585 26.787L18.5431 32.3375C18.4214 32.9544 17.9125 33.3984 17.3065 33.4478Z" fill="#FFCD8A"/>
            <path d="M1.36426 28.4217L1.92531 27.6181L11.8344 34.7855L11.2734 35.5892L1.36426 28.4217ZM4.61695 27.7138L5.178 26.9101L15.0867 34.0775L14.5256 34.8812L4.61695 27.7138ZM8.33577 27.1128L8.89727 26.3091L18.806 33.4766L18.2449 34.2803L8.33577 27.1128ZM10.9173 25.5381L11.4784 24.7344L20.0711 30.9498L19.5096 31.7535L10.9173 25.5381Z" fill="#FFBB71"/>
            <path d="M9.61264 34.7991L19.5227 27.633L20.0837 28.4372L10.1737 35.6033L9.61264 34.7991ZM6.37154 34.0675L18.6318 25.2015L19.1929 26.0057L6.93259 34.8712L6.37154 34.0675ZM2.61706 33.4825L12.5266 26.3164L13.0877 27.12L3.17812 34.2862L2.61706 33.4825ZM1.36572 30.9616L9.95934 24.7471L10.5204 25.5512L1.92678 31.7658L1.36572 30.9616Z" fill="#FFBB71"/>
            <path d="M10.7993 35.76L4.9071 35.432C3.33223 35.3663 2.02028 34.2011 1.71413 32.5992L0.722594 27.3176C0.53008 26.317 0.798352 25.2684 1.45789 24.4407C2.13214 23.6216 3.07465 23.1689 4.10986 23.1689H17.9277C18.9526 23.1689 19.9165 23.642 20.5052 24.4344C21.1759 25.2272 21.4419 26.274 21.2454 27.3176L20.2534 32.6001C19.9517 34.1793 18.6389 35.3441 17.0605 35.432L11.1616 35.76H10.7993ZM4.13259 25.1251C3.69498 25.1251 3.27965 25.3247 2.99221 25.6735C2.69676 26.0322 2.57287 26.5007 2.65219 26.9593L3.64507 32.2445C3.75246 32.928 4.35541 33.47 5.04614 33.4981L10.9477 33.8265L11.0992 33.8269L17.0177 33.4977C17.7089 33.4414 18.281 32.9271 18.4147 32.2463L19.4067 26.9624C19.4976 26.5139 19.3853 26.049 19.0983 25.6907C18.8105 25.3315 18.3835 25.1251 17.9272 25.1251H4.13259Z" fill="#4C2F1B"/>
            <path d="M17.7191 11.9854C17.7191 11.9854 18.2498 15.4364 16.0355 17.0329C13.3135 19.4277 5.51672 19.146 3.5791 20.6718C3.5791 20.6718 15.8046 20.9303 17.2347 17.3613C18.6647 13.7928 19.126 12.1495 17.7191 11.9854Z" fill="#F93D53"/>
            <path d="M2.4944 24.2332C2.17176 24.2332 1.87542 24.0523 1.68157 23.7366C1.65884 23.7021 0.257316 21.2534 1.12809 18.6614C1.72524 16.8603 3.22302 15.4725 5.57953 14.5359C7.9307 13.6066 9.666 13.3748 11.0599 13.1884C13.4436 12.8763 14.7547 12.7044 17.3278 9.43706C17.5065 9.20575 17.7685 9.07422 18.0479 9.07422C18.0827 9.07422 18.1175 9.07603 18.1518 9.08057C18.4838 9.10098 18.7699 9.29283 18.9125 9.5822C18.9468 9.63798 18.9668 9.67427 18.9869 9.7101C19.0132 9.75681 19.0399 9.80307 19.0658 9.84344C19.7939 11.102 21.7467 14.4751 18.4312 18.7621C16.744 20.9368 5.96679 24.2337 2.60982 24.2337H2.4944V24.2332ZM17.662 12.0296C15.2266 14.6239 13.4169 14.8565 11.3224 15.1259C9.8398 15.3051 8.33712 15.5346 6.28185 16.3619C4.47837 17.0717 3.3527 18.0613 2.93781 19.3031C2.65661 20.1041 2.68692 21.0421 3.02961 22.0875L3.08933 22.2703L3.27783 22.2526C6.98417 21.9034 15.8897 18.8342 16.8906 17.5611C18.806 15.0656 18.4744 13.2569 18.0582 12.113L17.9258 11.7493L17.662 12.0296Z" fill="#4C2F1B"/>
            <path d="M18.872 16.3047C18.872 16.3047 17.4879 19.4505 12.0672 20.554C7.70753 21.4226 1.17942 20.8592 1.15625 25.1321C1.15625 29.1937 17.7646 28.4893 19.8177 24.8269C22.7936 19.4977 18.872 16.3047 18.872 16.3047Z" fill="white"/>
            <path d="M2.28711 25.1559C4.89363 22.7145 11.7675 24.2171 14.1896 23.3245C17.465 22.1035 18.8723 21.7044 19.149 18.042C19.149 18.042 23.3474 22.9957 17.9726 26.3293C14.8585 28.2079 4.15521 29.5459 2.28711 25.1559Z" fill="#FFF383"/>
            <path d="M19.195 18.0195C19.195 18.0195 23.9241 27.9033 3.57861 26.0959C3.60179 26.0955 26.1616 30.2037 19.195 18.0195Z" fill="#F6E259"/>
            <path d="M8.40038 28.7635C6.06481 28.7635 4.12318 28.5004 2.78449 28.0033C1.0893 27.411 0.195801 26.4186 0.195801 25.1324C0.195801 20.9996 4.82817 20.464 8.55012 20.0331L8.65751 20.0204C9.95387 19.8889 11.0029 19.7419 11.8594 19.5714C16.428 18.6461 18.2293 16.1371 18.3844 15.7371L18.3643 15.8146C18.5101 15.5556 18.748 15.3806 19.0346 15.3221C19.0863 15.3112 19.1393 15.3066 19.1919 15.3066C19.4116 15.3066 19.6429 15.396 19.8269 15.5525C21.5573 17.0655 23.9352 21.0799 20.5315 25.4272C18.8822 27.5951 13.051 28.7635 8.40038 28.7635ZM19.0947 18.0366C17.941 19.2348 15.818 20.8105 12.2533 21.5135C11.1762 21.7276 9.9454 21.8695 8.88345 21.9797C4.8099 22.4401 2.141 22.9082 2.141 25.1319C2.141 25.595 2.96319 25.9592 3.45339 26.1356C4.64368 26.561 6.31793 26.786 8.29566 26.786C12.4459 26.786 17.8964 25.7252 19.0823 24.2026C21.1723 21.4999 20.2168 19.1999 19.4615 18.0697L19.2979 17.8248L19.0947 18.0366Z" fill="#4C2F1B"/>
        </g>
        <defs>
            <clipPath id="clip0_1_14583">
                <rect width="22.0652" height="41.1883" fill="white" transform="translate(0.195801 0.112305)"/>
            </clipPath>
        </defs>
    </symbol>



</svg>
