<svg xmlns="http://www.w3.org/2000/svg">

    <symbol id="logo-icon" viewBox="0 0 112 43" fill="none" xmlns="http://www.w3.org/2000/svg">
        <rect x="3.67383" y="4.97852" width="42.2674" height="37.3367" rx="6.96951" fill="#6C5FBC"/>
        <rect x="1.0075" y="1.0075" width="40.2524" height="35.3217" rx="5.96201" fill="#DBD9EE" stroke="#6C5FBC" stroke-width="2.01499"/>
        <path d="M32.624 12.0518L9.72243 11.9505" stroke="#6C5FBC" stroke-width="2.08432" stroke-linecap="round" stroke-linejoin="round"/>
        <path d="M32.6096 16.6368L27.5162 16.6142C25.4095 16.6049 23.7056 14.5428 23.7133 12.0119C23.7211 9.48095 25.4376 7.43398 27.5443 7.4433L32.6377 7.46582" stroke="#6C5FBC" stroke-width="2.08432" stroke-linecap="round" stroke-linejoin="round"/>
        <path d="M17.3611 26.7221L10.7067 26.648C10.1614 26.6456 9.70458 26.1076 9.6942 25.4525L9.64992 23.7254C9.63962 23.0405 10.0999 22.462 10.6699 22.4645L17.25 22.5383L17.3611 26.7221Z" stroke="#6C5FBC" stroke-width="2.08432" stroke-linecap="round" stroke-linejoin="round"/>
        <path d="M27.8134 29.2108L18.4076 29.0948C17.8624 29.0924 17.4055 28.5544 17.3951 27.8993L17.2752 22.5242L32.555 22.7108L32.5653 23.3957C32.6421 26.6417 30.5025 29.2525 27.8134 29.2108Z" stroke="#6C5FBC" stroke-width="2.08432" stroke-linecap="round" stroke-linejoin="round"/>
        <path d="M69.3081 21.6458C69.3081 22.0693 69.2798 22.4505 69.2234 22.7893H60.6472C60.7178 23.6363 61.0142 24.2999 61.5366 24.7798C62.0589 25.2598 62.7012 25.4998 63.4635 25.4998C64.5647 25.4998 65.3482 25.0269 65.8141 24.081H69.0116C68.6728 25.2104 68.0234 26.1421 67.0634 26.8762C66.1035 27.5962 64.9247 27.9562 63.5271 27.9562C62.3977 27.9562 61.3813 27.7092 60.4778 27.2151C59.5884 26.7068 58.8896 25.9939 58.3814 25.0763C57.8873 24.1587 57.6402 23.0999 57.6402 21.8999C57.6402 20.6859 57.8873 19.62 58.3814 18.7024C58.8755 17.7848 59.5672 17.0789 60.4566 16.5848C61.346 16.0907 62.3695 15.8437 63.5271 15.8437C64.6423 15.8437 65.6376 16.0836 66.5129 16.5636C67.4022 17.0436 68.0869 17.7283 68.5669 18.6177C69.061 19.4929 69.3081 20.5023 69.3081 21.6458ZM66.2376 20.7988C66.2235 20.0365 65.9482 19.4294 65.4117 18.9777C64.8753 18.5118 64.2188 18.2789 63.4424 18.2789C62.7083 18.2789 62.0871 18.5047 61.5789 18.9565C61.0848 19.3941 60.7813 20.0082 60.6683 20.7988H66.2376ZM70.7096 21.8576C70.7096 20.6717 70.9426 19.62 71.4084 18.7024C71.8884 17.7848 72.5308 17.0789 73.3354 16.5848C74.1542 16.0907 75.0648 15.8437 76.0671 15.8437C76.9424 15.8437 77.7047 16.0201 78.3541 16.373C79.0176 16.726 79.547 17.1707 79.9423 17.7071V16.0342H82.9281V27.7656H79.9423V26.0504C79.5611 26.601 79.0317 27.0598 78.3541 27.4268C77.6906 27.7797 76.9212 27.9562 76.0459 27.9562C75.0577 27.9562 74.1542 27.7021 73.3354 27.1939C72.5308 26.6857 71.8884 25.9727 71.4084 25.0551C70.9426 24.1234 70.7096 23.0575 70.7096 21.8576ZM79.9423 21.8999C79.9423 21.18 79.8011 20.5659 79.5188 20.0576C79.2364 19.5353 78.8553 19.14 78.3753 18.8718C77.8953 18.5894 77.38 18.4483 76.8294 18.4483C76.2789 18.4483 75.7707 18.5824 75.3048 18.8506C74.8389 19.1188 74.4578 19.5141 74.1613 20.0365C73.8789 20.5447 73.7378 21.1517 73.7378 21.8576C73.7378 22.5634 73.8789 23.1846 74.1613 23.721C74.4578 24.2434 74.8389 24.6457 75.3048 24.9281C75.7848 25.2104 76.293 25.3516 76.8294 25.3516C77.38 25.3516 77.8953 25.2175 78.3753 24.9492C78.8553 24.6669 79.2364 24.2716 79.5188 23.7634C79.8011 23.2411 79.9423 22.6199 79.9423 21.8999ZM89.2752 18.4695V24.1446C89.2752 24.5398 89.3669 24.8292 89.5505 25.0128C89.7481 25.1822 90.0728 25.2669 90.5246 25.2669H91.901V27.7656H90.0375C87.5388 27.7656 86.2894 26.5515 86.2894 24.1234V18.4695H84.8918V16.0342H86.2894V13.1332H89.2752V16.0342H91.901V18.4695H89.2752ZM96.9979 12.0955V27.7656H94.0333V12.0955H96.9979ZM111.15 16.0342L103.887 33.3137H100.732L103.273 27.4692L98.5717 16.0342H101.896L104.924 24.2293L107.995 16.0342H111.15Z" fill="#6C5FBC"/>
    </symbol>
    <symbol id="trustpilot-icon" viewBox="0 0 123 31" fill="none" xmlns="http://www.w3.org/2000/svg">
        <path d="M32.3291 10.7012H44.7726V13.0177H39.8731V26.0762H37.1876V13.0177H32.3086L32.3291 10.7012ZM44.2396 14.9447H46.5356V17.0972H46.5766C46.6586 16.7897 46.8021 16.5027 47.0071 16.2157C47.2121 15.9287 47.4581 15.6622 47.7656 15.4367C48.0526 15.1907 48.3806 15.0062 48.7496 14.8627C49.0981 14.7192 49.4671 14.6372 49.8361 14.6372C50.1231 14.6372 50.3281 14.6577 50.4306 14.6577C50.5331 14.6782 50.6561 14.6987 50.7586 14.6987V17.0562C50.5946 17.0152 50.4101 16.9947 50.2256 16.9742C50.0411 16.9537 49.8771 16.9332 49.6926 16.9332C49.2826 16.9332 48.8931 17.0152 48.5241 17.1792C48.1551 17.3432 47.8476 17.5892 47.5606 17.8967C47.2941 18.2247 47.0686 18.6142 46.9046 19.0857C46.7406 19.5572 46.6586 20.1107 46.6586 20.7257V26.0147H44.1986L44.2396 14.9447ZM62.0336 26.0762H59.6146V24.5182H59.5736C59.2661 25.0922 58.8151 25.5227 58.2206 25.8712C57.6261 26.2197 57.0111 26.3837 56.3961 26.3837C54.9406 26.3837 53.8746 26.0352 53.2186 25.2972C52.5626 24.5797 52.2346 23.4727 52.2346 22.0172V14.9447H54.6946V21.7712C54.6946 22.7552 54.8791 23.4522 55.2686 23.8417C55.6376 24.2517 56.1706 24.4567 56.8471 24.4567C57.3596 24.4567 57.7901 24.3747 58.1386 24.2107C58.4871 24.0467 58.7741 23.8417 58.9791 23.5752C59.2046 23.3087 59.3481 22.9807 59.4506 22.6117C59.5531 22.2427 59.5941 21.8327 59.5941 21.4022V14.9447H62.0541V26.0762H62.0336ZM66.2156 22.5092C66.2976 23.2267 66.5641 23.7187 67.0356 24.0262C67.5071 24.3132 68.0811 24.4567 68.7371 24.4567C68.9626 24.4567 69.2291 24.4362 69.5161 24.3952C69.8031 24.3542 70.0901 24.2927 70.3361 24.1902C70.6026 24.0877 70.8076 23.9442 70.9716 23.7392C71.1356 23.5342 71.2176 23.2882 71.1971 22.9807C71.1766 22.6732 71.0741 22.4067 70.8486 22.2017C70.6231 21.9967 70.3566 21.8532 70.0286 21.7097C69.7006 21.5867 69.3111 21.4842 68.8806 21.4022C68.4501 21.3202 68.0196 21.2177 67.5686 21.1152C67.1176 21.0127 66.6666 20.8897 66.2361 20.7462C65.8056 20.6027 65.4366 20.4182 65.0881 20.1517C64.7601 19.9057 64.4731 19.5982 64.2886 19.2087C64.0836 18.8192 63.9811 18.3682 63.9811 17.7942C63.9811 17.1792 64.1246 16.6872 64.4321 16.2772C64.7191 15.8672 65.1086 15.5392 65.5596 15.2932C66.0106 15.0472 66.5231 14.8627 67.0766 14.7602C67.6301 14.6577 68.1631 14.6167 68.6551 14.6167C69.2291 14.6167 69.7826 14.6782 70.2951 14.8012C70.8076 14.9242 71.2996 15.1087 71.7096 15.3957C72.1401 15.6622 72.4886 16.0312 72.7551 16.4617C73.0421 16.8922 73.2061 17.4252 73.2881 18.0402H70.7256C70.6026 17.4457 70.3361 17.0562 69.9261 16.8512C69.4956 16.6462 69.0241 16.5437 68.4706 16.5437C68.3066 16.5437 68.0811 16.5642 67.8556 16.5847C67.6096 16.6257 67.4046 16.6667 67.1791 16.7487C66.9741 16.8307 66.7896 16.9537 66.6461 17.0972C66.5026 17.2407 66.4206 17.4457 66.4206 17.6917C66.4206 17.9992 66.5231 18.2247 66.7281 18.4092C66.9331 18.5937 67.1996 18.7372 67.5481 18.8807C67.8761 19.0037 68.2656 19.1062 68.6961 19.1882C69.1266 19.2702 69.5776 19.3727 70.0286 19.4752C70.4796 19.5777 70.9101 19.7007 71.3406 19.8442C71.7711 19.9877 72.1606 20.1722 72.4886 20.4387C72.8166 20.6847 73.1036 20.9922 73.3086 21.3612C73.5136 21.7302 73.6161 22.2017 73.6161 22.7347C73.6161 23.3907 73.4726 23.9442 73.1651 24.4157C72.8576 24.8667 72.4681 25.2562 71.9966 25.5432C71.5251 25.8302 70.9716 26.0352 70.3976 26.1787C69.8031 26.3017 69.2291 26.3837 68.6551 26.3837C67.9581 26.3837 67.3021 26.3017 66.7076 26.1377C66.1131 25.9737 65.5801 25.7277 65.1496 25.4202C64.7191 25.0922 64.3706 24.7027 64.1246 24.2107C63.8786 23.7392 63.7351 23.1652 63.7146 22.4887H66.1951V22.5092H66.2156ZM74.3131 14.9447H76.1786V11.5827H78.6386V14.9242H80.8526V16.7487H78.6386V22.6937C78.6386 22.9602 78.6591 23.1652 78.6796 23.3702C78.7001 23.5547 78.7616 23.7187 78.8231 23.8417C78.9051 23.9647 79.0281 24.0672 79.1716 24.1287C79.3356 24.1902 79.5406 24.2312 79.8276 24.2312C79.9916 24.2312 80.1761 24.2312 80.3401 24.2107C80.5041 24.1902 80.6886 24.1697 80.8526 24.1287V26.0352C80.5861 26.0762 80.3196 26.0967 80.0531 26.1172C79.7866 26.1582 79.5406 26.1582 79.2536 26.1582C78.5976 26.1582 78.0851 26.0967 77.6956 25.9737C77.3061 25.8507 76.9986 25.6662 76.7731 25.4407C76.5476 25.1947 76.4041 24.9077 76.3221 24.5592C76.2401 24.2107 76.1991 23.7802 76.1786 23.3292V16.7692H74.3131V14.9037V14.9447ZM82.5746 14.9447H84.8911V16.4617H84.9321C85.2806 15.8057 85.7521 15.3547 86.3671 15.0677C86.9821 14.7807 87.6381 14.6372 88.3761 14.6372C89.2576 14.6372 90.0161 14.7807 90.6721 15.1087C91.3281 15.4162 91.8611 15.8262 92.2916 16.3797C92.7221 16.9127 93.0501 17.5482 93.2551 18.2657C93.4601 18.9832 93.5831 19.7622 93.5831 20.5617C93.5831 21.3202 93.4806 22.0377 93.2961 22.7347C93.0911 23.4317 92.8041 24.0672 92.4146 24.6002C92.0251 25.1332 91.5331 25.5637 90.9181 25.8917C90.3031 26.2197 89.6061 26.3837 88.7861 26.3837C88.4376 26.3837 88.0686 26.3427 87.7201 26.2812C87.3716 26.2197 87.0231 26.1172 86.6951 25.9737C86.3671 25.8302 86.0596 25.6457 85.7931 25.4202C85.5061 25.1947 85.2806 24.9282 85.0961 24.6412H85.0551V30.1967H82.5951V14.9447H82.5746ZM91.1641 20.5207C91.1641 20.0287 91.1026 19.5367 90.9591 19.0652C90.8361 18.5937 90.6311 18.1837 90.3646 17.8147C90.0981 17.4457 89.7701 17.1587 89.4011 16.9332C89.0116 16.7077 88.5606 16.6052 88.0686 16.6052C87.0436 16.6052 86.2646 16.9537 85.7316 17.6712C85.2191 18.3887 84.9526 19.3522 84.9526 20.5412C84.9526 21.1152 85.0141 21.6277 85.1576 22.0992C85.3011 22.5707 85.4856 22.9807 85.7726 23.3292C86.0391 23.6777 86.3671 23.9442 86.7566 24.1492C87.1461 24.3542 87.5766 24.4567 88.0891 24.4567C88.6631 24.4567 89.1141 24.3337 89.5036 24.1082C89.8931 23.8827 90.2006 23.5752 90.4671 23.2267C90.7131 22.8577 90.8976 22.4477 91.0001 21.9762C91.1026 21.4842 91.1641 21.0127 91.1641 20.5207ZM95.4896 10.7012H97.9496V13.0177H95.4896V10.7012ZM95.4896 14.9447H97.9496V26.0762H95.4896V14.9447ZM100.143 10.7012H102.603V26.0762H100.143V10.7012ZM110.106 26.3837C109.225 26.3837 108.425 26.2402 107.728 25.9327C107.031 25.6252 106.457 25.2357 105.965 24.7232C105.494 24.2107 105.125 23.5752 104.879 22.8577C104.633 22.1402 104.489 21.3407 104.489 20.5002C104.489 19.6597 104.612 18.8807 104.879 18.1632C105.125 17.4457 105.494 16.8307 105.965 16.2977C106.437 15.7852 107.031 15.3752 107.728 15.0882C108.425 14.8012 109.225 14.6372 110.106 14.6372C110.988 14.6372 111.787 14.7807 112.484 15.0882C113.181 15.3752 113.755 15.7852 114.247 16.2977C114.719 16.8102 115.088 17.4457 115.334 18.1632C115.58 18.8807 115.723 19.6597 115.723 20.5002C115.723 21.3612 115.6 22.1402 115.334 22.8577C115.067 23.5752 114.719 24.1902 114.247 24.7232C113.776 25.2357 113.181 25.6457 112.484 25.9327C111.787 26.2197 111.008 26.3837 110.106 26.3837ZM110.106 24.4362C110.639 24.4362 111.131 24.3132 111.521 24.0877C111.931 23.8622 112.238 23.5547 112.505 23.1857C112.771 22.8167 112.956 22.3862 113.079 21.9352C113.202 21.4637 113.263 20.9922 113.263 20.5002C113.263 20.0287 113.202 19.5572 113.079 19.0857C112.956 18.6142 112.771 18.2042 112.505 17.8352C112.238 17.4662 111.91 17.1792 111.521 16.9537C111.111 16.7282 110.639 16.6052 110.106 16.6052C109.573 16.6052 109.081 16.7282 108.692 16.9537C108.282 17.1792 107.974 17.4867 107.708 17.8352C107.441 18.2042 107.257 18.6142 107.134 19.0857C107.011 19.5572 106.949 20.0287 106.949 20.5002C106.949 20.9922 107.011 21.4637 107.134 21.9352C107.257 22.4067 107.441 22.8167 107.708 23.1857C107.974 23.5547 108.302 23.8622 108.692 24.0877C109.102 24.3337 109.573 24.4362 110.106 24.4362ZM116.461 14.9447H118.327V11.5827H120.787V14.9242H123.001V16.7487H120.787V22.6937C120.787 22.9602 120.807 23.1652 120.828 23.3702C120.848 23.5547 120.91 23.7187 120.971 23.8417C121.053 23.9647 121.176 24.0672 121.32 24.1287C121.484 24.1902 121.689 24.2312 121.976 24.2312C122.14 24.2312 122.324 24.2312 122.488 24.2107C122.652 24.1902 122.837 24.1697 123.001 24.1287V26.0352C122.734 26.0762 122.468 26.0967 122.201 26.1172C121.935 26.1582 121.689 26.1582 121.402 26.1582C120.746 26.1582 120.233 26.0967 119.844 25.9737C119.454 25.8507 119.147 25.6662 118.921 25.4407C118.696 25.1947 118.552 24.9077 118.47 24.5592C118.388 24.2107 118.347 23.7802 118.327 23.3292V16.7692H116.461V14.9037V14.9447Z" fill="black"/>
        <path d="M29.4585 10.701H18.204L14.7395 0L11.2545 10.701L0 10.6805L9.10199 17.302L5.617 28.003L14.719 21.3815L23.821 28.003L20.3565 17.302L29.4585 10.701Z" fill="#00B67A"/>
        <path d="M21.1362 19.7208L20.3572 17.3018L14.7402 21.3813L21.1362 19.7208Z" fill="#005128"/>
    </symbol>
    <symbol id="star-icon" viewBox="0 0 16 16" fill="none" xmlns="http://www.w3.org/2000/svg">
        <path d="M6.95816 0.741543C7.27942 -0.247181 8.6782 -0.247181 8.99945 0.741543L10.1473 4.2742C10.291 4.71637 10.703 5.01575 11.1679 5.01575H14.8824C15.922 5.01575 16.3542 6.34607 15.5132 6.95713L12.5081 9.14044C12.132 9.41371 11.9746 9.89811 12.1183 10.3403L13.2661 13.8729C13.5874 14.8617 12.4557 15.6838 11.6147 15.0728L8.6096 12.8895C8.23347 12.6162 7.72415 12.6162 7.34801 12.8895L4.34295 15.0728C3.5019 15.6838 2.37026 14.8617 2.69151 13.8729L3.83935 10.3403C3.98302 9.89811 3.82563 9.41371 3.44949 9.14044L0.444434 6.95713C-0.396625 6.34607 0.0356224 5.01575 1.07523 5.01575H4.78969C5.25461 5.01575 5.66666 4.71637 5.81033 4.2742L6.95816 0.741543Z" fill="#F59E0B"/>
    </symbol>
    <symbol id="arrow-icon" viewBox="0 0 101 98" fill="none" xmlns="http://www.w3.org/2000/svg">
        <path d="M71.6674 10.7111C80.803 24.3855 86.0196 40.0142 80.7461 55.9952C75.9861 70.42 63.0132 78.9641 48.1158 68.2622C41.0635 63.1962 36.4872 52.9723 41.0691 45.3764C46.1738 36.9138 57.5029 44.4112 60.5762 50.1704C67.7546 63.6215 63.1038 81.7597 47.3119 89.9534C28.6107 99.6567 20.562 81.1081 20.7098 81.1037" stroke="#665AB5" stroke-width="2.65" stroke-miterlimit="1.5" stroke-linecap="round" stroke-linejoin="round"/>
        <path d="M91.0256 14.5963C89.1011 14.9712 87.2152 14.5933 85.3117 14.3026C79.0611 13.3488 72.67 10.5339 68.7869 5.89197C71.0236 11.8454 71.6846 20.2492 66.9237 25.2906" stroke="#665AB5" stroke-width="2.65" stroke-miterlimit="1.5" stroke-linecap="round" stroke-linejoin="round"/>
    </symbol>
    <symbol id="lines-top-icon" viewBox="0 0 42 28" fill="none" xmlns="http://www.w3.org/2000/svg">
        <path d="M3.03562 12.8839C6.63998 9.20371 11.0587 8.59002 15.5406 8.17742C21.1348 7.66242 26.8271 7.46063 31.1569 1.99998" stroke="#685BB8" stroke-width="2.65" stroke-miterlimit="1.5" stroke-linecap="round" stroke-linejoin="round"/>
        <path d="M1.63661 23.2285C4.92103 18.5553 9.69807 15.7937 15.3404 15.1712C18.2926 14.8456 21.2864 15.1697 24.22 14.6123C30.8291 13.356 36.9687 9.34402 39.8474 3.13949" stroke="#685BB8" stroke-width="2.65" stroke-miterlimit="1.5" stroke-linecap="round" stroke-linejoin="round"/>
        <path d="M30.5218 19.2191C28.3334 20.6222 25.9587 21.6906 23.3509 21.9971C18.1575 22.6072 12.7177 21.7974 8.77443 25.9997" stroke="#685BB8" stroke-width="2.65" stroke-miterlimit="1.5" stroke-linecap="round" stroke-linejoin="round"/>
    </symbol>
    <symbol id="curve-icon" viewBox="0 0 209 100" fill="none" xmlns="http://www.w3.org/2000/svg">
        <path d="M1.07422 83.6715C12.1442 83.6715 13.2155 98.0846 24.9997 98.0846C36.7839 98.0846 33.9271 57.1211 44.9972 57.1211C56.0672 57.1211 49.9965 22.6056 65.3517 22.6056C80.7069 22.6056 73.5649 57.1211 87.4917 57.1211C101.418 57.1211 99.2759 16.8297 108.203 16.8297C117.131 16.8297 114.631 40.8116 125.344 40.8116C136.057 40.8116 131.058 1.25586 142.485 1.25586C153.912 1.25586 152.84 18.5225 163.196 18.5225C173.552 18.5225 174.623 38.5359 188.907 38.5359C203.191 38.5359 194.264 60.8428 207.833 60.8428" stroke="#6C5FBC" stroke-width="1.98779" stroke-linecap="round" stroke-linejoin="round"/>
    </symbol>
    <symbol id="point-icon" viewBox="0 0 10 10" fill="none" xmlns="http://www.w3.org/2000/svg">
        <path d="M5.17188 1.24414C6.992 1.24414 8.58301 2.83462 8.58301 4.94336C8.58291 7.052 6.99195 8.64258 5.17188 8.64258C3.352 8.64231 1.76182 7.05182 1.76172 4.94336C1.76172 2.8348 3.35194 1.24441 5.17188 1.24414Z" fill="#C5BFED" stroke="#6C5FBC" stroke-width="2.22012"/>
    </symbol>
    <symbol id="lines-bottom-icon" viewBox="0 0 39 37" fill="none" xmlns="http://www.w3.org/2000/svg">
        <path d="M27.3376 31.1198C30.2316 24.6503 32.3782 17.9383 34.9719 11.3638" stroke="#685BB8" stroke-width="2.65" stroke-miterlimit="1.5" stroke-linecap="round" stroke-linejoin="round"/>
        <path d="M7.92894 35.0005C15.8316 26.5431 22.9341 17.0933 29.461 7.55682" stroke="#685BB8" stroke-width="2.65" stroke-miterlimit="1.5" stroke-linecap="round" stroke-linejoin="round"/>
        <path d="M1.63457 15.8358C9.15324 13.2755 18.5471 6.43167 25.4724 1.99974" stroke="#685BB8" stroke-width="2.65" stroke-miterlimit="1.5" stroke-linecap="round" stroke-linejoin="round"/>
    </symbol>
    <symbol id="decor1-icon" viewBox="0 0 384 221" fill="none" xmlns="http://www.w3.org/2000/svg">
        <path opacity="0.2" d="M369.68 577.878C375.051 546.413 382.885 516.817 380.878 482.89C379.444 458.658 373.443 434.809 361.905 412.054C340.393 369.626 312.272 329.18 278.84 296.952C244.679 264.021 211.142 228.189 172.566 202.9C136.7 179.387 98.446 159.962 63.4785 134.41C4.88972 91.5978 -36.5779 23.2802 -71.7742 -42.2882C-90.3944 -76.9764 -108.862 -111.901 -126.689 -147.001C-137.875 -169.027 -147.273 -192.647 -161.028 -213.115" stroke="#A596FF" stroke-width="4.01667" stroke-linecap="round"/>
    </symbol>
    <symbol id="decor2-icon" viewBox="0 0 428 221" fill="none" xmlns="http://www.w3.org/2000/svg">
        <path opacity="0.2" d="M413.34 566.6C419.134 532.606 427.589 500.633 425.415 463.977C423.861 437.797 417.374 412.03 404.907 387.442C381.662 341.6 351.28 297.896 315.163 263.07C278.258 227.484 242.027 188.764 200.355 161.433C161.61 136.023 120.288 115.028 82.5135 87.4146C19.2219 41.1481 -25.5823 -32.6707 -63.6122 -103.518C-83.7315 -140.999 -103.686 -178.735 -122.948 -216.66C-135.036 -240.46 -145.191 -265.98 -160.052 -288.097" stroke="#A596FF" stroke-width="4.01667" stroke-linecap="round"/>
    </symbol>
    <symbol id="decor3-icon" viewBox="0 0 128 221" fill="none" xmlns="http://www.w3.org/2000/svg">
        <path opacity="0.2" d="M250.547 -80.8447C227.068 -78.6528 201.569 -78.3091 178.691 -73.183C156.305 -68.1671 132.729 -59.0673 113.033 -49.4564C76.737 -31.7454 58.1474 -6.95103 41.2821 22.6297C13.4496 71.4467 3.3729 122.078 2.93791 175.123C2.64995 210.239 3.99988 244.997 7.66528 279.998C8.78437 290.684 8.22504 302.9 16.0695 312.128" stroke="#A596FF" stroke-width="4.44874" stroke-linecap="round"/>
    </symbol>
    <symbol id="decor4-icon" viewBox="0 0 88 221" fill="none" xmlns="http://www.w3.org/2000/svg">
        <path opacity="0.2" d="M258.001 -55.6357C233.819 -53.3776 207.556 -53.0235 183.993 -47.7427C160.937 -42.5754 136.655 -33.2008 116.37 -23.2998C78.9867 -5.05417 59.8405 20.4887 42.4704 50.9625C13.8045 101.253 3.42611 153.413 2.9781 208.059C2.68151 244.235 4.07186 280.042 7.84701 316.1C8.9996 327.109 8.42353 339.694 16.5028 349.2" stroke="#A596FF" stroke-width="4.44874" stroke-linecap="round"/>
    </symbol>
    <symbol id="arrow-right-icon" viewBox="0 0 28 28" fill="none" xmlns="http://www.w3.org/2000/svg">
        <path d="M6.55469 13.5469H22.3588" stroke="currentColor" stroke-width="2.25773" stroke-linecap="round" stroke-linejoin="round"/>
        <path d="M14.4561 5.64453L22.3581 13.5466L14.4561 21.4487" stroke="currentColor" stroke-width="2.25773" stroke-linecap="round" stroke-linejoin="round"/>
    </symbol>
    <symbol id="arrow-quality-icon" viewBox="0 0 169 61" fill="none" xmlns="http://www.w3.org/2000/svg">
        <path d="M168.51 6.14524C168.736 5.44942 168.356 4.70168 167.66 4.4751C166.964 4.24854 166.216 4.62893 165.99 5.32475L168.51 6.14524ZM134.211 38.1393L134.417 39.4481L134.211 38.1393ZM94.9327 16.2392L96.2576 16.2287L94.9327 16.2392ZM106.699 2.00495L106.79 3.32679L106.699 2.00495ZM119.187 12.3894L117.941 12.8395L119.187 12.3894ZM85.8664 47.5723L86.0118 48.8893L85.8664 47.5723ZM50.0898 25.0035L51.4127 24.9278L50.0898 25.0035ZM58.6008 14.038L58.9272 15.3222L58.6008 14.038ZM32.8261 59.2674L32.9313 57.9466L32.8261 59.2674ZM1.37233 39.7189L1.67289 38.4284C1.20208 38.3187 0.708912 38.4742 0.386083 38.834C0.0632658 39.1938 -0.0379848 39.7009 0.121904 40.1571L1.37233 39.7189ZM12.9722 43.781C13.6849 43.947 14.3973 43.5038 14.5633 42.7911C14.7293 42.0784 14.2861 41.3661 13.5734 41.2001L12.9722 43.781ZM4.36582 52.266C4.60787 52.9566 5.3639 53.3202 6.05449 53.0782C6.74509 52.8362 7.10871 52.0801 6.86667 51.3895L4.36582 52.266ZM167.25 5.735C165.99 5.32475 165.99 5.32442 165.99 5.32421C165.99 5.32428 165.99 5.32417 165.99 5.32431C165.99 5.3246 165.99 5.32531 165.989 5.32646C165.989 5.32876 165.987 5.33277 165.985 5.33847C165.982 5.34989 165.975 5.36806 165.967 5.39279C165.95 5.44226 165.924 5.51796 165.889 5.61827C165.819 5.8189 165.711 6.11784 165.564 6.50209C165.271 7.27077 164.824 8.37969 164.214 9.72495C162.993 12.4182 161.123 16.0443 158.531 19.7794C153.33 27.276 145.345 35.0415 134.004 36.8304L134.417 39.4481C146.782 37.4974 155.317 29.0607 160.708 21.2901C163.413 17.3916 165.358 13.6179 166.628 10.8196C167.263 9.41912 167.73 8.2594 168.041 7.44588C168.196 7.03902 168.311 6.71848 168.389 6.49739C168.428 6.38683 168.457 6.30111 168.477 6.24188C168.487 6.21227 168.495 6.18927 168.5 6.1731C168.503 6.16501 168.505 6.15862 168.507 6.15398C168.508 6.15165 168.508 6.14976 168.509 6.1483C168.509 6.14757 168.509 6.14681 168.509 6.14644C168.509 6.14579 168.51 6.14524 167.25 5.735ZM134.004 36.8304C125.148 38.2275 115.647 36.5955 108.382 32.7941C101.099 28.9829 96.3124 23.1503 96.2576 16.2287L93.6077 16.2497C93.6732 24.5238 99.3941 31.0818 107.154 35.1421C114.932 39.212 125.01 40.9322 134.417 39.4481L134.004 36.8304ZM96.2576 16.2287C96.2416 14.2002 97.0816 11.0373 98.8904 8.32693C100.682 5.64226 103.304 3.56809 106.79 3.32679L106.607 0.683114C102.057 0.998027 98.7776 3.72199 96.6862 6.85591C94.6119 9.96411 93.587 13.6403 93.6077 16.2497L96.2576 16.2287ZM106.79 3.32679C110.087 3.09861 112.447 4.40049 114.211 6.284C116.015 8.20966 117.182 10.7376 117.941 12.8395L120.433 11.9393C119.629 9.71127 118.313 6.78656 116.145 4.47227C113.938 2.11582 110.836 0.390421 106.607 0.683114L106.79 3.32679ZM117.941 12.8395C120.967 21.2178 117.74 28.9549 111.233 34.9948C104.704 41.0555 95.0158 45.2291 85.721 46.2553L86.0118 48.8893C95.8117 47.8074 106.047 43.4237 113.036 36.937C120.047 30.4296 123.933 21.6293 120.433 11.9393L117.941 12.8395ZM85.721 46.2553C77.749 47.1355 69.3253 45.6514 62.824 41.9973C56.3496 38.3582 51.8532 32.6242 51.4127 24.9278L48.767 25.0792C49.2704 33.875 54.4526 40.3319 61.5256 44.3074C68.5717 48.2677 77.5643 49.822 86.0118 48.8893L85.721 46.2553ZM51.4127 24.9278C51.2745 22.5139 51.8549 20.4733 53.06 18.8788C54.2673 17.2812 56.1875 16.0186 58.9272 15.3222L58.2744 12.7539C55.074 13.5674 52.5855 15.1114 50.9458 17.281C49.3038 19.4536 48.5988 22.1407 48.767 25.0792L51.4127 24.9278ZM58.9272 15.3222C61.4325 14.6854 63.4587 15.1941 65.1694 16.4251C66.9338 17.6947 68.426 19.7842 69.6426 22.384L72.0428 21.2608C70.7277 18.4505 68.9935 15.912 66.7172 14.2741C64.3872 12.5975 61.5583 11.9191 58.2744 12.7539L58.9272 15.3222ZM69.6426 22.384C73.7169 31.0908 69.408 40.2171 61.3002 47.2331C53.2116 54.2323 41.8197 58.6546 32.9313 57.9466L32.7209 60.5882C42.4857 61.3661 54.5525 56.5765 63.0342 49.237C71.4965 41.9143 76.8694 31.5752 72.0428 21.2608L69.6426 22.384ZM32.9313 57.9466C26.0317 57.397 18.4366 52.7361 12.4277 48.014C9.45504 45.6779 6.93009 43.3751 5.14816 41.6558C4.25787 40.7968 3.55474 40.0851 3.07579 39.5899C2.83636 39.3423 2.65307 39.1489 2.53054 39.0185C2.46928 38.9533 2.42322 38.9038 2.39295 38.8711C2.3778 38.8548 2.36661 38.8426 2.35943 38.8348C2.35585 38.8309 2.35327 38.8281 2.3517 38.8264C2.35091 38.8256 2.35038 38.825 2.35011 38.8247C2.34997 38.8245 2.34996 38.8245 2.34988 38.8244C2.34994 38.8245 2.35004 38.8246 1.37233 39.7189C0.394615 40.6131 0.39485 40.6134 0.395158 40.6137C0.395344 40.6139 0.395711 40.6143 0.396083 40.6147C0.396828 40.6155 0.397834 40.6166 0.39909 40.618C0.401613 40.6208 0.405156 40.6246 0.409706 40.6295C0.418806 40.6394 0.431948 40.6537 0.449073 40.6722C0.48331 40.7091 0.533445 40.763 0.598903 40.8327C0.729812 40.9721 0.922037 41.1748 1.17093 41.4321C1.66864 41.9468 2.39344 42.6803 3.30813 43.5628C5.1362 45.3267 7.72958 47.6923 10.7903 50.0976C16.8481 54.8582 24.9799 59.9716 32.7209 60.5882L32.9313 57.9466ZM1.07177 41.0093L12.9722 43.781L13.5734 41.2001L1.67289 38.4284L1.07177 41.0093ZM0.121904 40.1571L4.36582 52.266L6.86667 51.3895L2.62275 39.2806L0.121904 40.1571Z" fill="#6C5FBC"/>
    </symbol>
    <symbol id="quality-lines-icon" viewBox="0 0 56 62" fill="none" xmlns="http://www.w3.org/2000/svg">
        <path d="M29.4019 8.28731C19.9957 12.6113 11.1774 17.9211 2.00004 22.6496" stroke="#6C5FBC" stroke-width="2.65" stroke-miterlimit="1.5" stroke-linecap="round" stroke-linejoin="round"/>
        <path d="M54.464 22.7004C37.6407 24.3888 20.7416 27.9376 4.39179 32.1357" stroke="#6C5FBC" stroke-width="2.65" stroke-miterlimit="1.5" stroke-linecap="round" stroke-linejoin="round"/>
        <path d="M42.9382 49.8177C32.2122 45.3954 15.3032 43.8755 3.42795 42.0809" stroke="#6C5FBC" stroke-width="2.65" stroke-miterlimit="1.5" stroke-linecap="round" stroke-linejoin="round"/>
    </symbol>
    <symbol id="star-blue-icon" viewBox="0 0 26 27" fill="none" xmlns="http://www.w3.org/2000/svg">
        <path d="M15.9993 21.687C17.7033 22.6197 19.2019 21.4893 18.876 19.511L18.2909 15.9589L20.7696 13.4433C22.1482 12.0443 21.5786 10.2111 19.6708 9.92245L16.2453 9.40421L14.7209 6.18842C13.867 4.38709 12.013 4.36771 11.1575 6.17244L9.62555 9.40421L6.19999 9.92245C4.29484 10.2107 3.72066 12.0423 5.10119 13.4433L7.57994 15.9589L6.99479 19.511C6.66935 21.4865 8.16507 22.621 9.87149 21.687L12.9354 20.01L15.9993 21.687Z" fill="#6C5FBC"/>
        <mask id="mask0_1_16751" style="mask-type:luminance" maskUnits="userSpaceOnUse" x="4" y="4" width="18" height="19">
            <path d="M15.9993 21.687C17.7033 22.6197 19.2019 21.4893 18.876 19.511L18.2909 15.9589L20.7696 13.4433C22.1482 12.0443 21.5786 10.2111 19.6708 9.92245L16.2453 9.40421L14.7209 6.18842C13.867 4.38709 12.013 4.36771 11.1575 6.17244L9.62555 9.40421L6.19999 9.92245C4.29484 10.2107 3.72066 12.0423 5.10119 13.4433L7.57994 15.9589L6.99479 19.511C6.66935 21.4865 8.16507 22.621 9.87149 21.687L12.9354 20.01L15.9993 21.687Z" fill="white"/>
        </mask>
        <g mask="url(#mask0_1_16751)">
        </g>
    </symbol>
    <symbol id="bookmark-icon" viewBox="0 0 41 41" fill="none" xmlns="http://www.w3.org/2000/svg">
        <circle cx="20.2242" cy="20.2525" r="20.0426" fill="#DBD9EE"/>
        <path d="M24.6161 10.8844C21.7146 10.3979 18.7366 10.3979 15.8351 10.8844C14.775 11.0621 13.9309 11.8759 13.7183 12.9311C12.7446 17.7651 12.6915 22.7393 13.5617 27.593L13.916 29.5691C14.0253 30.1785 14.7681 30.422 15.2169 29.9957L19.4936 25.9328C19.9038 25.5431 20.5474 25.5431 20.9577 25.9328L25.2343 29.9957C25.6831 30.422 26.426 30.1785 26.5352 29.5691L26.8895 27.593C27.7598 22.7393 27.7066 17.7651 26.7329 12.9311C26.5204 11.8759 25.6762 11.0621 24.6161 10.8844Z" fill="#6C5FBC"/>
    </symbol>
    <symbol id="plus-icon" viewBox="0 0 16 16" fill="none" xmlns="http://www.w3.org/2000/svg">
        <mask id="path-1-inside-1_1_16678" fill="white">
            <path d="M15.2818 9.36025H8.94222V15.7891H6.41234V9.36025H0.102539V7.06848H6.41234V0.609863H8.94222V7.06848H15.2818V9.36025Z"/>
        </mask>
        <path d="M15.2818 9.36025H8.94222V15.7891H6.41234V9.36025H0.102539V7.06848H6.41234V0.609863H8.94222V7.06848H15.2818V9.36025Z" fill="black"/>
        <path d="M15.2818 9.36025V13.4693H19.3908V9.36025H15.2818ZM8.94222 9.36025V5.2512H4.83317V9.36025H8.94222ZM8.94222 15.7891V19.8982H13.0513V15.7891H8.94222ZM6.41234 15.7891H2.30329V19.8982H6.41234V15.7891ZM6.41234 9.36025H10.5214V5.2512H6.41234V9.36025ZM0.102539 9.36025H-4.00651V13.4693H0.102539V9.36025ZM0.102539 7.06848V2.95943H-4.00651V7.06848H0.102539ZM6.41234 7.06848V11.1775H10.5214V7.06848H6.41234ZM6.41234 0.609863V-3.49919H2.30329V0.609863H6.41234ZM8.94222 0.609863H13.0513V-3.49919H8.94222V0.609863ZM8.94222 7.06848H4.83317V11.1775H8.94222V7.06848ZM15.2818 7.06848H19.3908V2.95943H15.2818V7.06848ZM15.2818 5.2512H8.94222V13.4693H15.2818V5.2512ZM4.83317 9.36025V15.7891H13.0513V9.36025H4.83317ZM8.94222 11.6801H6.41234V19.8982H8.94222V11.6801ZM10.5214 15.7891V9.36025H2.30329V15.7891H10.5214ZM6.41234 5.2512H0.102539V13.4693H6.41234V5.2512ZM4.21159 9.36025V7.06848H-4.00651V9.36025H4.21159ZM0.102539 11.1775H6.41234V2.95943H0.102539V11.1775ZM10.5214 7.06848V0.609863H2.30329V7.06848H10.5214ZM6.41234 4.71891H8.94222V-3.49919H6.41234V4.71891ZM4.83317 0.609863V7.06848H13.0513V0.609863H4.83317ZM8.94222 11.1775H15.2818V2.95943H8.94222V11.1775ZM11.1727 7.06848V9.36025H19.3908V7.06848H11.1727Z" fill="white" mask="url(#path-1-inside-1_1_16678)"/>
    </symbol>
    <symbol id="heart-icon" viewBox="0 0 22 19" fill="none" xmlns="http://www.w3.org/2000/svg">
        <path fill-rule="evenodd" clip-rule="evenodd" d="M0.0214844 6.66277C0.0214844 3.27527 2.99334 0.666992 6.48165 0.666992C8.2798 0.666992 9.86206 1.51012 10.9975 2.60107C12.1329 1.51012 13.7152 0.666992 15.5133 0.666992C19.0016 0.666992 21.9735 3.27527 21.9735 6.66277C21.9735 8.98325 20.9839 11.0239 19.6129 12.7488C18.2443 14.4707 16.4541 15.9322 14.74 17.1197C14.0852 17.5732 13.4229 17.9917 12.8167 18.3004C12.2475 18.5903 11.593 18.8558 10.9975 18.8558C10.402 18.8558 9.74747 18.5903 9.17827 18.3004C8.57208 17.9917 7.90974 17.5732 7.25503 17.1197C5.54091 15.9322 3.75066 14.4707 2.38204 12.7488C1.01106 11.0239 0.0214844 8.98325 0.0214844 6.66277ZM6.48165 2.54859C3.87344 2.54859 1.90309 4.4667 1.90309 6.66277C1.90309 8.42332 2.65044 10.0625 3.85505 11.578C5.06202 13.0966 6.68602 14.4365 8.32655 15.573C8.94732 16.003 9.53203 16.369 10.0322 16.6237C10.5693 16.8972 10.8804 16.9742 10.9975 16.9742C11.1146 16.9742 11.4257 16.8972 11.9628 16.6237C12.463 16.369 13.0477 16.003 13.6684 15.573C15.309 14.4365 16.933 13.0966 18.1399 11.578C19.3445 10.0625 20.0919 8.42332 20.0919 6.66277C20.0919 4.4667 18.1215 2.54859 15.5133 2.54859C14.0154 2.54859 12.6167 3.44351 11.7433 4.57937C11.5652 4.81098 11.2896 4.94671 10.9975 4.94671C10.7053 4.94671 10.4298 4.81098 10.2517 4.57937C9.37831 3.44351 7.97959 2.54859 6.48165 2.54859Z" fill="#323142"/>
    </symbol>
    <symbol id="icon-arrow-down" viewBox="0 0 10 6" fill="none" xmlns="http://www.w3.org/2000/svg">
        <path d="M1.48047 1.11331L5.12832 4.31369L8.77552 1.11331" stroke="currentColor" stroke-width="1.4" stroke-linecap="round"/>
    </symbol>
    <symbol id="wallet-icon" viewBox="0 0 26 26" fill="none" xmlns="http://www.w3.org/2000/svg">
        <path d="M13.3524 2.77494L13.321 2.84823L10.2845 9.89494H7.30039C6.58839 9.89494 5.9078 10.0415 5.29004 10.3033L7.12239 5.92659L7.16427 5.82188L7.23757 5.65435C7.25851 5.59153 7.27945 5.52871 7.31086 5.47635C8.68251 2.30376 10.2322 1.58129 13.3524 2.77494Z" stroke="#936DFF" stroke-width="1.57059" stroke-linecap="round" stroke-linejoin="round"/>
        <path d="M18.9957 10.1043C18.5245 9.95773 18.0219 9.8949 17.5194 9.8949H10.2842L13.3206 2.8482L13.3521 2.7749C13.5091 2.82726 13.6557 2.90055 13.8128 2.96337L16.1268 3.93714C17.4147 4.47114 18.3151 5.02608 18.8596 5.6962C18.9643 5.82184 19.0481 5.93702 19.1214 6.07314C19.2156 6.21973 19.2889 6.36631 19.3308 6.52337C19.3727 6.61761 19.4041 6.71184 19.425 6.79561C19.7077 7.67514 19.5402 8.75361 18.9957 10.1043Z" stroke="#936DFF" stroke-width="1.57059" stroke-linecap="round" stroke-linejoin="round"/>
        <path d="M22.6303 15.0052V17.0469C22.6303 17.2563 22.6198 17.4657 22.6093 17.6752C22.4104 21.3294 20.3686 23.1722 16.4945 23.1722H8.32744C8.07615 23.1722 7.82485 23.1513 7.58403 23.1199C4.25438 22.9 2.47438 21.12 2.2545 17.7903C2.22309 17.5495 2.20215 17.2982 2.20215 17.0469V15.0052C2.20215 12.9006 3.47956 11.0892 5.30144 10.3039C5.92968 10.0421 6.5998 9.89551 7.3118 9.89551H17.5311C18.0441 9.89551 18.5467 9.9688 19.0074 10.1049C21.0911 10.7436 22.6303 12.6912 22.6303 15.0052Z" stroke="#936DFF" stroke-width="1.57059" stroke-linecap="round" stroke-linejoin="round"/>
        <path d="M7.12208 5.92676L5.28972 10.3035C3.46784 11.0888 2.19043 12.9002 2.19043 15.0048V11.9369C2.19043 8.96323 4.30549 6.4817 7.12208 5.92676Z" stroke="#936DFF" stroke-width="1.57059" stroke-linecap="round" stroke-linejoin="round"/>
        <path d="M22.6277 11.9358V15.0036C22.6277 12.7001 21.099 10.7421 19.0049 10.1139C19.5494 8.7527 19.7064 7.6847 19.4446 6.7947C19.4237 6.70046 19.3923 6.60623 19.3504 6.52246C21.2979 7.52764 22.6277 9.59034 22.6277 11.9358Z" stroke="#936DFF" stroke-width="1.57059" stroke-linecap="round" stroke-linejoin="round"/>
    </symbol>
    <symbol id="money-icon" viewBox="0 0 26 26" fill="none" xmlns="http://www.w3.org/2000/svg">
        <path d="M17.8963 22.2331H7.42572C4.28455 22.2331 2.19043 20.6625 2.19043 16.9978V9.6684C2.19043 6.00369 4.28455 4.43311 7.42572 4.43311H17.8963C21.0375 4.43311 23.1316 6.00369 23.1316 9.6684V16.9978C23.1316 20.6625 21.0375 22.2331 17.8963 22.2331Z" stroke="#22C55E" stroke-width="1.57059" stroke-miterlimit="10" stroke-linecap="round" stroke-linejoin="round"/>
        <path d="M12.6617 16.4738C14.3965 16.4738 15.8029 15.0674 15.8029 13.3326C15.8029 11.5978 14.3965 10.1914 12.6617 10.1914C10.9269 10.1914 9.52051 11.5978 9.52051 13.3326C9.52051 15.0674 10.9269 16.4738 12.6617 16.4738Z" stroke="#22C55E" stroke-width="1.57059" stroke-miterlimit="10" stroke-linecap="round" stroke-linejoin="round"/>
        <path d="M5.85645 10.7153V15.9506" stroke="#22C55E" stroke-width="1.57059" stroke-miterlimit="10" stroke-linecap="round" stroke-linejoin="round"/>
        <path d="M19.4668 10.7153V15.9506" stroke="#22C55E" stroke-width="1.57059" stroke-miterlimit="10" stroke-linecap="round" stroke-linejoin="round"/>
    </symbol>
    <symbol id="instagram-icon" viewBox="0 0 22 22" fill="none" xmlns="http://www.w3.org/2000/svg">
        <path fill-rule="evenodd" clip-rule="evenodd" d="M10.7721 0C12.1916 0.0506994 13.6618 0.0506994 15.0812 0.101392C16.3486 0.152085 17.5146 0.354867 18.6299 1.0139C20.0494 1.87572 20.9112 3.14309 21.2154 4.76533C21.3674 5.72853 21.4181 6.74243 21.4688 7.70564C21.5195 9.83483 21.4688 11.964 21.4688 14.0932C21.4688 15.2085 21.4181 16.3238 21.0633 17.3884C20.3535 19.4669 18.8834 20.7342 16.7542 21.1398C15.791 21.3426 14.7771 21.3426 13.8139 21.3933C11.6846 21.444 9.60615 21.3933 7.47694 21.3933C6.36165 21.3933 5.24635 21.3426 4.18176 20.9877C2.10325 20.278 0.835867 18.8078 0.430303 16.6786C0.227525 15.7154 0.227525 14.7015 0.176829 13.7383C0.126131 11.6091 0.176829 9.47996 0.176829 7.35077C0.176829 6.23549 0.227525 5.1202 0.582391 4.05559C1.29213 1.9771 2.76229 0.709734 4.89148 0.304173C5.8547 0.101399 6.8686 0.101399 7.83181 0.0506994C8.79502 0 9.75823 0 10.7721 0ZM19.5426 10.4939C19.4919 10.4939 19.5426 10.4939 19.5426 10.4939C19.4919 9.6321 19.4919 8.82097 19.4919 7.95916C19.4919 7.14805 19.4412 6.33692 19.3398 5.52581C19.137 3.70078 18.0724 2.4841 16.2981 2.12924C15.3855 1.92646 14.3716 1.92646 13.4591 1.92646C11.6341 1.87577 9.85976 1.87577 8.03473 1.92646C7.12222 1.92646 6.2097 1.97715 5.34788 2.12924C3.82702 2.38271 2.76243 3.24453 2.30617 4.76538C2.15408 5.27233 2.10339 5.77928 2.05269 6.28623C2.002 8.21264 2.002 10.139 2.002 12.0655C2.002 13.2821 2.05269 14.5495 2.15408 15.7662C2.30617 17.5912 3.42146 18.8586 5.2465 19.1627C6.159 19.3148 7.12222 19.3655 8.08543 19.3655C9.85976 19.4162 11.6341 19.3655 13.4591 19.3655C14.2703 19.3655 15.0814 19.3148 15.8925 19.2134C16.6529 19.1627 17.3627 18.9093 17.971 18.4023C18.9849 17.5912 19.3398 16.5266 19.3905 15.3099C19.4919 13.7891 19.4919 12.1668 19.5426 10.4939Z" fill="currentColor"/>
        <path fill-rule="evenodd" clip-rule="evenodd" d="M16.2471 10.6962C16.2471 13.7379 13.8137 16.1712 10.772 16.1712C7.73025 16.1712 5.29688 13.7379 5.29688 10.6455C5.29688 7.65453 7.78094 5.22119 10.8227 5.22119C13.8137 5.22119 16.2471 7.65453 16.2471 10.6962ZM10.7719 14.2448C12.6983 14.2448 14.3205 12.6226 14.3205 10.6962C14.3205 8.76976 12.6983 7.14752 10.7719 7.14752C8.79474 7.14752 7.22318 8.76976 7.22318 10.6962C7.17248 12.6226 8.79474 14.2448 10.7719 14.2448Z" fill="currentColor"/>
        <path d="M17.7184 4.96758C17.7184 5.67731 17.1607 6.28566 16.451 6.28566C15.7413 6.28566 15.1329 5.67731 15.1836 4.96758C15.1836 4.25785 15.7413 3.7002 16.451 3.7002C17.1607 3.7002 17.7184 4.25784 17.7184 4.96758Z" fill="currentColor"/>
    </symbol>
    <symbol id="in-icon" viewBox="0 0 22 21" fill="none" xmlns="http://www.w3.org/2000/svg">
        <path fill-rule="evenodd" clip-rule="evenodd" d="M21.6325 12.4811V20.3602H17.0315V12.9987C17.0315 11.1583 16.3989 9.89304 14.731 9.89304C13.4658 9.89304 12.7181 10.7557 12.373 11.5609C12.258 11.8484 12.2005 12.251 12.2005 12.6536V20.3602H7.59952C7.59952 20.3602 7.65703 7.88013 7.59952 6.61487H12.2005V8.57027C12.2005 8.57027 12.2005 8.62777 12.143 8.62777H12.2005V8.57027C12.8331 7.65008 13.8684 6.26979 16.3414 6.26979C19.332 6.26979 21.6325 8.28271 21.6325 12.4811ZM2.88298 0.000976562C1.33014 0.000976562 0.294922 1.03619 0.294922 2.35897C0.294922 3.68174 1.27263 4.71697 2.82546 4.71697H2.88298C4.49333 4.71697 5.47103 3.68175 5.47103 2.35897C5.41352 1.03619 4.43581 0.000976562 2.88298 0.000976562ZM0.525568 20.3602H5.06905V6.61489H0.525568V20.3602Z" fill="currentColor"/>
    </symbol>
    <symbol id="facebook-icon" viewBox="0 0 11 22" fill="none" xmlns="http://www.w3.org/2000/svg">
        <path fill-rule="evenodd" clip-rule="evenodd" d="M9.95256 10.6695H6.97166V21.338H2.52644V12.415V10.6695H0.43457V6.90414H2.52644V4.4462C2.52644 2.72041 3.36319 0.000976562 6.97166 0.000976562H10.2663V3.66174H7.913C7.54692 3.66174 6.97166 3.87094 6.97166 4.70768V6.90414H10.3186L9.95256 10.6695Z" fill="currentColor"/>
    </symbol>
    <symbol id="twitter-icon" viewBox="0 0 22 19" fill="none" xmlns="http://www.w3.org/2000/svg">
        <path fill-rule="evenodd" clip-rule="evenodd" d="M21.6154 2.82596C20.8121 3.1774 20.0088 3.42842 19.1052 3.52883C20.0088 2.97658 20.7117 2.1231 21.0129 1.11901C20.1595 1.62106 19.2056 1.97249 18.2517 2.1733C17.4484 1.31982 16.2937 0.767578 15.0386 0.767578C12.6287 0.767578 10.6707 2.72555 10.6707 5.13537C10.6707 5.48681 10.7209 5.83823 10.7711 6.13947C7.10619 5.93865 3.89307 4.23169 1.73426 1.57085C1.33262 2.22351 1.1318 2.97658 1.1318 3.77985C1.1318 5.28599 1.88488 6.64151 3.08979 7.44478C2.38692 7.44478 1.68406 7.24397 1.0816 6.89253V6.94273C1.0816 9.05133 2.58774 10.8587 4.59594 11.2603C4.2445 11.3607 3.84287 11.4109 3.44122 11.4109C3.14 11.4109 2.88897 11.3607 2.63795 11.3105C3.1902 13.0677 4.79676 14.3228 6.75475 14.373C5.2486 15.5277 3.39102 16.2306 1.33262 16.2306C0.981189 16.2306 0.629757 16.2306 0.27832 16.1804C2.23631 17.4355 4.49553 18.1383 7.00577 18.1383C15.0888 18.1383 19.4566 11.4611 19.4566 5.68762C19.4566 5.48681 19.4566 5.28599 19.4566 5.13537C20.3101 4.48272 21.0631 3.67944 21.6154 2.82596Z" fill="currentColor"/>
    </symbol>
    <symbol id="quotes-icon" viewBox="0 0 59 45" fill="none" xmlns="http://www.w3.org/2000/svg">
        <path fill-rule="evenodd" clip-rule="evenodd" d="M36.797 44.2511C33.6916 38.2474 32.139 31.7262 32.139 24.6874C32.139 17.5452 34.0281 11.645 37.8062 6.98701C41.5844 2.32901 47.4586 0 55.429 0V9.78182C52.6342 9.78182 50.5898 10.4029 49.2959 11.645C48.002 12.8872 47.3551 15.2679 47.3551 18.7873V20.34H58.6896V44.2511H36.797ZM4.65799 44.2513C1.55267 38.2477 0 31.7264 0 24.6877C0 17.5454 1.88908 11.6452 5.66723 6.98723C9.44538 2.32923 15.3196 0.000219731 23.29 0.000219731V9.78204C20.4952 9.78204 18.4508 10.4031 17.157 11.6452C15.8631 12.8874 15.2161 15.2681 15.2161 18.7875V20.3402H26.5506V44.2513H4.65799Z" fill="#DADADA"/>
    </symbol>



</svg>
